**ABCDEFGHIJKLMNOPQRSTUVWXYZabcdefghijklmnopqrstuvwxyz**************************
**PARASOLID !"#$%&'()*+,-./:;<=>?@[\]^_`{|}~0123456789**************************
**PART1;
MC=unknown;
MC_MODEL=unknown;
MC_ID=unknown;
OS=unknown;
OS_RELEASE=unknown;
FRU=sdl_parasolid_customer_support;
APPL=Example Application;
SITE=unknown;
USER=unknown;
FORMAT=text;
GUISE=transmit;
KEY=model;
FILE=model.X_T;
DATE=unknown;
**PART2;
SCH=SCH_3200152_32001;
USFLD_SIZE=0;
**PART3;
**END_OF_HEADER*****************************************************************
T51 : TRANSMIT FILE created by modeller version 320015223 SCH_3200152_32001_1300
6227 0 12 34 CCCCCCI4 mesh1006 0 I8 polyline1008 0 CCCCCCCDI5 owner1040 0 CCCCCC
I13 boundary_mesh1006 0 I17 boundary_polyline1008 0 CCCA16 index_map_offset0 0 1
 dA9 index_map82 0 A17 node_id_index_map82 0 A20 schema_embedding_map82 0 A5 chi
ld12 0 A14 lowest_node_id0 0 1 dA16 mesh_offset_data206 0 Z1 437 0 0 0 0 0 0 0 0
 1e3 1e-8 0 0 0 1 0 1 1 2 3 4 5 0 0 6 7 8 0 0 0 0 0 0 0 13 255 2 3 0 1 0 9 0 0 1
0 0 50 255 3 54 0 11 12 0 0 +.04 0 .009 0 0 1 1 0 0 31 255 4 415 0 13 14 0 0 +.0
09 -.035 .09 1 0 0 0 0 -1 8e-4 29 255 5 306 0 8 15 0 0 .0045 .009 19 8 CCCCCCCA5
 owner12 0 Z6 1 0 1 10 0 16 V0 16 255 7 297 0 ?17 0 18 14 0 0 1 18 255 8 304 0 1
9 0 20 5 ?1 17 255 19 0 21 22 23 8 24 25 0 26 -18 20 301 0 22 8 27 15 ?1 17 22 0
 21 28 19 20 26 29 0 30 -18 27 290 0 31 20 32 33 ?1 29 15 303 0 20 33 5 0 -.0045
 .009 29 33 292 0 27 34 15 .009 -.0045 .1 29 34 65 0 32 35 33 .009 -.04 .009 18
 32 63 0 36 27 37 34 ?1 29 35 58 0 37 38 34 0 -.04 .009 18 37 23 0 39 32 40 35 ?
1 29 38 57 0 40 41 35 0 .04 .009 18 40 21 0 24 37 42 38 ?1 29 41 56 0 42 43 38 .
08 .04 .009 18 42 19 0 44 40 45 41 ?1 29 43 55 0 45 46 41 .08 -.04 .009 18 45 17
 0 47 42 48 43 ?1 29 46 41 0 49 50 43 0 -.04 0 18 49 11 0 51 52 53 46 ?1 29 50 4
0 0 52 54 46 0 .04 0 18 52 13 0 55 48 49 50 ?1 29 54 39 0 48 56 50 .08 .04 0 18
 48 15 0 57 45 52 54 ?1 29 56 38 0 53 58 54 .08 -.04 0 18 53 10 0 59 49 60 56 ?1
 29 58 125 0 60 61 56 0 -.04 .1 18 60 86 0 62 53 63 58 ?1 29 61 126 0 63 64 58 0
 .04 .1 18 63 88 0 65 60 66 61 ?1 29 64 127 0 66 67 61 .009 .04 .1 18 66 90 0 68
 63 69 64 ?1 29 67 128 0 69 70 64 .009 -.04 .1 18 69 85 0 71 66 72 67 ?1 29 70 1
31 0 72 73 67 .009 .04 .009 18 72 91 0 74 69 75 70 ?1 29 73 399 0 75 76 70 .009
 .0045 .009 18 75 350 0 77 72 78 73 ?1 29 76 400 0 78 79 73 .009 -.0045 .009 18
 78 342 0 80 75 81 76 ?1 29 79 402 0 82 83 76 .015 -.0045 .1 18 82 348 0 84 85 8
6 79 ?1 29 83 403 0 86 87 79 .08 -.0045 .015 18 86 349 0 88 82 89 83 ?1 29 87 40
4 0 89 90 83 .08 -.0045 .009 18 89 353 0 91 86 0 87 ?1 29 90 406 0 85 92 87 .009
 .0045 .1 18 85 352 0 17 93 82 90 ?1 29 92 407 0 81 94 90 .015 .0045 .1 18 81 34
6 0 95 78 96 92 ?1 29 94 408 0 96 97 92 .08 .0045 .015 18 96 347 0 98 81 93 94 ?
1 29 97 409 0 93 0 94 .08 .0045 .009 18 93 351 0 99 96 85 97 ?1 17 99 0 100 101
 102 93 103 104 0 105 -15 255 100 367 0 102 106 0 17 101 0 100 88 99 96 105 107
 0 0 +17 102 0 100 99 88 89 108 109 0 110 -17 103 0 111 47 112 89 99 104 0 0 +16
 104 336 0 ?103 113 114 115 0 0 1 17 105 0 116 77 117 93 101 107 0 118 -15 116 3
71 0 77 119 0 17 77 0 116 17 105 75 118 114 0 120 -17 117 0 116 105 121 96 122 1
23 0 101 -16 107 332 0 ?101 114 123 124 0 0 1 17 118 0 125 126 127 93 77 114 0 1
12 +15 125 318 0 118 11 128 17 126 0 125 129 118 42 112 130 0 131 -17 127 0 125
 118 129 75 74 132 0 0 -16 114 322 0 ?118 104 107 133 0 0 1 17 112 0 111 103 131
 93 126 130 0 0 +15 111 7 0 134 135 0 17 131 0 111 112 134 42 57 136 0 0 +16 130
 25 0 ?112 137 138 139 138 138 1 16 137 67 0 ?44 140 130 141 140 140 1 16 138 31
1 0 ?47 130 142 139 130 130 1 30 255 139 59 0 130 143 141 0 +.08 0 .009 0 -1 0 3
0 143 53 0 142 144 139 0 +0 -.04 0 0 0 1 30 141 60 0 140 139 145 0 +.04 .04 .009
 1 0 0 16 140 28 0 ?146 25 137 141 137 137 1 30 145 61 0 147 141 148 0 +0 0 .009
 0 1 0 16 147 31 0 ?30 149 29 145 25 29 1 30 148 62 0 149 145 150 0 +.04 -.04 .0
09 -1 0 0 16 149 34 0 ?151 18 147 148 0 0 1 31 150 137 0 152 148 153 0 +.025 -.0
25 0 0 0 -1 -1 0 0 .005 16 152 228 0 ?154 155 156 150 0 0 1 31 153 142 0 157 150
 158 0 +.065 -.025 0 0 0 -1 -1 0 0 .005 16 157 210 0 ?159 160 155 153 0 0 1 31 1
58 147 0 161 153 162 0 +.065 .025 0 0 0 -1 -1 0 0 .005 16 161 192 0 ?163 164 160
 158 0 0 1 31 162 152 0 165 158 166 0 +.025 .025 0 0 0 -1 -1 0 0 .005 16 165 174
 0 ?167 168 164 162 0 0 1 30 166 295 0 18 162 14 0 +.009 -.0045 .009 0 0 1 16 18
 293 0 ?169 7 149 166 0 0 1 30 14 299 0 7 166 4 0 +.009 .0045 .009 0 0 1 17 169
 0 170 71 171 27 80 18 0 172 +15 170 104 0 171 173 0 17 71 0 170 174 169 69 172
 175 0 176 +17 171 0 170 169 174 78 36 177 0 0 +17 80 0 178 91 31 78 169 18 0 17
9 -17 172 0 180 181 176 27 71 175 0 0 -15 180 94 0 176 182 0 17 181 0 180 183 17
2 85 184 156 0 185 -17 176 0 180 172 186 69 62 187 0 188 -16 175 291 0 ?71 189 1
90 191 189 189 1 16 189 84 0 ?185 192 175 191 175 175 1 16 190 76 0 ?193 175 194
 195 0 0 1 30 191 116 0 189 195 196 0 +.009 0 .1 0 -1 0 30 195 117 0 190 197 191
 0 +0 -.04 .009 0 0 1 30 196 115 0 192 191 198 0 +.0045 .04 .1 1 0 0 16 192 80 0
 ?68 199 189 196 0 0 1 30 198 114 0 199 196 200 0 +0 0 .1 0 1 0 16 199 77 0 ?65
 187 192 198 0 0 1 30 200 113 0 187 198 201 0 +.0045 -.04 .1 -1 0 0 16 187 74 0
 ?62 202 199 200 0 0 1 30 201 42 0 202 200 203 0 +.04 -.04 0 1 0 0 16 202 12 0 ?
204 205 187 201 0 0 1 30 203 43 0 206 201 207 0 +.08 0 0 0 1 0 16 206 6 0 ?134 2
08 209 203 0 0 1 30 207 44 0 209 203 210 0 +.04 .04 0 -1 0 0 16 209 16 0 ?211 20
6 205 207 0 0 1 30 210 45 0 205 207 212 0 +0 0 0 0 -1 0 16 205 14 0 ?213 209 202
 210 0 0 1 30 212 50 0 208 210 214 0 +.08 -.04 0 0 0 1 16 208 18 0 ?215 136 206
 212 0 0 1 30 214 51 0 136 212 144 0 +.08 .04 0 0 0 1 16 136 20 0 ?131 216 208 2
14 0 0 1 30 144 52 0 216 214 143 0 +0 .04 0 0 0 1 16 216 22 0 ?217 142 136 144 0
 0 1 17 217 0 218 146 211 40 55 216 0 23 +16 142 24 0 ?219 138 216 143 0 0 1 17
 219 0 220 30 213 37 51 142 0 221 +15 220 29 0 219 222 0 17 30 0 220 26 219 20 2
8 147 0 0 +17 213 0 220 219 55 49 223 205 0 224 +17 51 0 225 204 39 49 219 142 0
 213 -17 221 0 226 227 62 37 193 190 0 28 -15 226 96 0 188 228 0 17 227 0 226 18
8 221 32 39 229 0 0 +17 62 0 226 221 188 60 176 187 0 186 +17 193 0 21 65 28 60
 221 190 0 0 +17 28 0 21 193 22 37 30 147 0 0 -15 21 98 0 193 230 0 14 255 230 9
7 0 ?231 228 21 2 232 +0 0 231 228 16 14 231 99 0 ?233 230 234 2 235 +0 0 233 23
0 16 14 228 95 0 ?230 182 226 2 236 +0 0 230 182 16 50 232 109 0 230 235 236 0 +
0 0 .009 -1 0 0 0 0 1 13 16 4 0 0 0 0 0 0 6 9 14 9 316 0 ?173 0 237 2 3 +11 11 1
73 0 16 14 173 296 0 ?11 9 238 2 239 +233 233 11 9 16 15 237 156 0 240 9 241 14
 11 36 0 ?242 173 125 2 3 +9 9 242 173 16 14 242 33 0 ?222 11 225 2 12 +0 0 222
 11 16 14 222 30 0 ?243 242 220 2 244 +0 0 243 242 16 15 225 32 0 215 242 0 50 1
2 49 0 242 244 3 0 +.04 -.04 0 0 -1 0 0 0 -1 50 244 48 0 222 245 12 0 +0 0 0 -1
 0 0 0 0 1 50 245 47 0 243 246 244 0 +.04 .04 0 0 1 0 0 0 1 14 243 27 0 ?247 222
 218 2 245 +0 0 247 222 16 50 246 46 0 135 248 245 0 +.08 0 0 1 0 0 0 0 -1 14 13
5 2 0 ?182 247 111 2 246 +0 0 182 247 16 50 248 37 0 247 249 246 0 +.04 0 0 0 0
 -1 -1 0 0 14 247 9 0 ?135 243 250 2 248 +0 0 135 243 16 50 249 107 0 182 236 24
8 0 +.0045 0 .1 0 0 1 1 0 0 14 182 93 0 ?228 135 180 2 249 +0 0 228 135 16 50 23
6 108 0 228 232 249 0 +.0045 -.04 .009 0 -1 0 0 0 -1 15 250 151 0 251 247 252 17
 251 0 250 251 251 0 167 165 0 0 -15 252 146 0 253 247 254 17 253 0 252 253 253
 0 163 161 0 0 -15 254 141 0 255 247 256 17 255 0 254 255 255 0 159 157 0 0 -15
 256 136 0 257 247 258 17 257 0 256 257 257 0 154 152 0 0 -15 258 8 0 259 247 0
 17 259 0 258 224 260 53 134 206 0 0 -17 224 0 258 223 259 49 204 202 0 0 -17 26
0 0 258 259 223 48 211 209 0 134 -17 134 0 111 131 59 48 259 206 0 0 +17 59 0 11
1 134 47 53 215 208 0 204 -17 47 0 111 59 103 45 110 138 0 261 +17 215 0 225 151
 204 45 59 208 0 0 +17 204 0 225 215 51 53 224 202 0 259 +17 151 0 225 39 215 32
 261 149 0 174 +17 39 0 225 51 151 37 227 229 0 219 -17 261 0 262 110 36 45 151
 149 0 215 -17 174 0 170 171 71 32 188 263 0 227 -17 188 0 226 62 227 69 174 263
 0 0 +16 263 73 0 ?188 264 177 265 0 0 1 16 264 83 0 ?266 194 263 267 0 0 1 16 1
77 82 0 ?171 263 132 268 132 132 1 30 265 120 0 263 268 267 0 +.009 -.04 .009 0
 0 1 30 268 123 0 177 269 265 0 +.009 0 .009 0 1 0 30 267 119 0 264 265 197 0 +.
009 .04 .009 0 0 1 30 197 118 0 194 267 195 0 +0 .04 .009 0 0 1 16 194 79 0 ?270
 190 264 197 0 0 1 17 270 0 234 68 271 63 23 194 0 0 +15 234 100 0 270 231 0 17
 68 0 234 272 270 66 273 192 0 183 +17 271 0 234 270 272 40 146 140 0 0 -17 23 0
 21 19 65 40 270 194 0 271 -17 65 0 21 23 193 63 186 199 0 273 +17 186 0 180 176
 273 60 65 199 0 193 -17 273 0 180 186 183 63 68 192 0 270 -17 183 0 180 273 181
 66 185 189 0 266 -17 185 0 274 120 266 85 183 189 0 0 +17 266 0 274 185 74 66 2
72 264 0 0 +15 274 298 0 120 233 0 17 74 0 274 266 120 72 127 132 0 146 +17 272
 0 234 271 68 72 266 264 0 0 -17 120 0 274 74 185 75 17 7 0 127 -16 132 285 0 ?7
4 177 229 268 177 177 1 17 146 0 218 44 217 72 271 140 0 129 +15 218 26 0 217 24
3 0 17 44 0 218 57 146 42 129 137 0 126 +17 129 0 125 127 126 72 44 137 0 272 -1
7 57 0 218 211 44 48 131 136 0 260 -17 211 0 218 217 57 52 260 209 0 223 +17 223
 0 258 260 224 52 213 205 0 0 -16 229 75 0 ?227 132 168 269 0 0 1 16 168 172 0 ?
275 229 165 276 0 0 1 30 269 124 0 229 276 268 0 +.0045 -.04 .009 1 0 0 31 276 2
62 0 168 277 269 0 +.025 .025 .009 0 0 1 1 0 0 .005 31 277 263 0 164 278 276 0 +
.065 .025 .009 0 0 1 1 0 0 .005 16 164 190 0 ?279 165 161 277 0 0 1 31 278 264 0
 160 280 277 0 +.065 -.025 .009 0 0 1 1 0 0 .005 16 160 208 0 ?281 161 157 278 0
 0 1 31 280 265 0 155 282 278 0 +.025 -.025 .009 0 0 1 1 0 0 .005 16 155 226 0 ?
283 157 152 280 0 0 1 30 282 384 0 156 115 280 0 +.009 .0045 .1 0 -1 0 16 156 32
9 0 ?184 152 284 282 0 0 1 30 115 386 0 104 285 282 0 +.08 .0045 .009 0 -1 0 30
 285 387 0 113 286 115 0 +.08 .0045 .015 0 -1 0 16 113 333 0 ?88 284 104 285 0 0
 1 30 286 388 0 284 287 285 0 +.015 .0045 .1 0 -1 0 16 284 331 0 ?84 156 113 286
 0 0 1 30 287 390 0 288 289 286 0 +.009 -.0045 .1 -1 0 0 16 288 341 0 ?31 290 13
 287 0 0 1 30 289 391 0 290 291 287 0 +.015 -.0045 .1 -.607450107570797 0 .79435
7832977196 16 290 340 0 ?292 109 288 289 0 0 1 30 291 392 0 109 293 289 0 +.08 -
.0045 .015 0 0 1 16 109 339 0 ?108 294 290 291 0 0 1 30 293 393 0 294 295 291 0
 +.08 -.0045 .009 1 0 0 16 294 323 0 ?91 296 109 293 0 0 1 30 295 395 0 296 297
 293 0 +.009 .0045 .1 -1 0 0 16 296 328 0 ?298 123 294 295 0 0 1 30 297 396 0 12
3 124 295 0 +.015 .0045 .1 -.607450107570797 0 .794357832977196 16 123 330 0 ?12
2 107 296 297 0 0 1 30 124 397 0 107 133 297 0 +.08 .0045 .015 0 0 1 30 133 398
 0 114 299 124 0 +.08 .0045 .009 1 0 0 31 299 437 0 300 0 133 0 +.005 -.035 .09
 1 0 0 0 1 0 8e-4 16 300 420 0 ?301 13 0 299 0 0 1 17 301 0 302 301 301 0 303 30
0 0 0 +16 13 419 0 ?304 288 300 4 0 0 1 17 304 0 305 304 304 0 306 13 0 0 +15 30
5 429 0 304 307 308 17 306 0 238 306 306 0 304 13 0 0 -15 238 414 0 306 173 170
 14 307 428 0 ?0 309 305 2 310 -0 0 0 309 16 15 308 430 0 303 307 0 17 303 0 308
 303 303 0 301 300 0 0 -14 309 426 0 ?307 311 302 2 312 -0 0 307 311 16 51 255 3
10 433 0 307 312 313 0 +.005 -.035 .09 1 0 0 8e-4 0 1 0 50 312 435 0 309 0 310 0
 +.005 -.035 .09 -1 0 0 0 0 1 50 313 382 0 119 310 314 0 +0 .0045 0 0 1 0 0 0 1
 14 119 370 0 ?311 106 116 2 313 +0 0 311 106 16 50 314 381 0 311 313 315 0 +0 -
.0045 0 0 1 0 0 0 1 14 311 372 0 ?309 119 178 2 314 -0 0 309 119 16 50 315 378 0
 106 314 316 0 +.08 .0045 .015 1 0 0 0 0 -1 14 106 366 0 ?119 317 100 2 315 +0 0
 119 317 16 50 316 377 0 317 315 318 0 +.015 .0045 .1 .794357832977196 0 .607450
107570797 .607450107570797 0 -.794357832977196 14 317 364 0 ?106 319 320 2 316 +
0 0 106 319 16 50 318 376 0 319 316 321 0 +.009 .0045 .1 0 0 1 1 0 0 14 319 362
 0 ?317 322 323 2 318 +0 0 317 322 16 51 321 259 0 324 318 325 0 +.065 -.025 -.0
05 0 0 1 .005 1 0 0 14 324 221 0 ?326 327 328 2 321 -0 0 326 327 16 51 325 256 0
 326 321 329 0 +.065 .025 -.005 0 0 1 .005 1 0 0 14 326 203 0 ?322 324 330 2 325
 -0 0 322 324 16 51 329 253 0 322 325 331 0 +.025 .025 -.005 0 0 1 .005 1 0 0 14
 322 185 0 ?319 326 332 2 329 -0 0 319 326 16 51 331 250 0 327 329 239 0 +.025 -
.025 -.005 0 0 1 .005 1 0 0 14 327 239 0 ?324 233 333 2 331 -0 0 324 233 16 50 2
39 111 0 233 331 235 0 +.009 0 .009 1 0 0 0 0 -1 14 233 103 0 ?327 231 274 2 239
 +173 173 327 231 16 50 235 110 0 231 239 232 0 +.0045 .04 .009 0 1 0 0 0 1 15 3
33 240 0 283 327 334 17 283 0 333 283 283 0 240 155 0 0 +15 334 241 0 154 327 0
 17 154 0 334 154 154 0 257 152 0 0 +17 240 0 237 240 240 0 283 155 0 0 -15 332
 186 0 275 322 335 17 275 0 332 275 275 0 336 168 0 0 +15 335 187 0 167 322 0 17
 167 0 335 167 167 0 251 165 0 0 +17 336 0 128 336 336 0 275 168 0 0 -15 128 168
 0 336 11 337 15 337 164 0 338 11 0 17 338 0 337 338 338 0 279 164 0 0 -17 279 0
 330 279 279 0 338 164 0 0 +15 330 204 0 279 326 339 15 339 205 0 163 326 0 17 1
63 0 339 163 163 0 253 161 0 0 +15 328 222 0 281 324 340 17 281 0 328 281 281 0
 341 160 0 0 +15 340 223 0 159 324 0 17 159 0 340 159 159 0 255 157 0 0 +17 341
 0 241 341 341 0 281 160 0 0 -15 241 160 0 341 9 262 15 262 70 0 110 9 0 17 110
 0 262 179 261 89 47 138 0 103 -17 179 0 262 36 110 78 91 294 0 171 -17 36 0 262
 261 179 32 171 177 0 151 -17 91 0 178 108 80 89 179 294 0 102 +15 178 373 0 80
 311 0 17 108 0 178 292 91 86 102 109 0 0 +17 292 0 178 31 108 82 342 290 0 0 +1
7 31 0 178 80 292 27 343 288 0 184 +17 342 0 320 98 84 86 292 290 0 108 -15 320
 365 0 342 317 0 17 98 0 320 122 342 96 88 113 0 117 -17 84 0 320 342 122 82 95
 284 0 343 +17 122 0 320 84 98 81 117 123 0 0 +17 95 0 323 298 343 81 84 284 0 1
21 -17 343 0 323 95 184 82 31 288 0 292 -15 323 363 0 343 319 0 17 184 0 323 343
 298 27 181 156 0 169 +17 298 0 323 184 95 85 121 296 0 181 +17 121 0 116 117 17
 81 298 296 0 122 -17 17 0 116 121 77 85 120 7 0 298 +17 88 0 100 102 101 86 98
 113 0 342 +15 302 427 0 301 309 0 17 55 0 220 213 24 52 217 216 0 211 -17 24 0
 220 55 26 40 19 25 0 217 +17 26 0 220 24 30 8 22 29 0 0 +16 25 305 0 ?24 29 140
 145 29 147 1 16 29 302 0 ?26 147 25 145 147 25 1 19 10 5 0 1 0 6 2 S0 1 0 
