**ABCDEFGHIJKLMNOPQRSTUVWXYZabcdefghijklmnopqrstuvwxyz**************************
**PARASOLID !"#$%&'()*+,-./:;<=>?@[\]^_`{|}~0123456789**************************
**PART1;
MC=unknown;
MC_MODEL=unknown;
MC_ID=unknown;
OS=unknown;
OS_RELEASE=unknown;
FRU=sdl_parasolid_customer_support;
APPL=Example Application;
SITE=unknown;
USER=unknown;
FORMAT=text;
GUISE=transmit;
KEY=model;
FILE=model.X_T;
DATE=unknown;
**PART2;
SCH=SCH_3200152_32001;
USFLD_SIZE=0;
**PART3;
**END_OF_HEADER*****************************************************************
T51 : TRANSMIT FILE created by modeller version 320015223 SCH_3200152_32001_1300
6227 0 12 34 CCCCCCI4 mesh1006 0 I8 polyline1008 0 CCCCCCCDI5 owner1040 0 CCCCCC
I13 boundary_mesh1006 0 I17 boundary_polyline1008 0 CCCA16 index_map_offset0 0 1
 dA9 index_map82 0 A17 node_id_index_map82 0 A20 schema_embedding_map82 0 A5 chi
ld12 0 A14 lowest_node_id0 0 1 dA16 mesh_offset_data206 0 Z1 1224 0 2 0 0 0 0 0
 0 1e3 1e-8 0 0 0 1 0 1 1 3 4 5 6 0 0 7 8 9 0 0 0 0 0 0 0 70 11 CI9 list_type0 0
 1 uI10 notransmit0 0 1 lCCCDCCDI12 finger_index0 0 1 dI12 finger_block1012 0 CZ
2 0 4 T1 0 0 1 20 1 10 10 13 255 3 3 0 1 0 11 0 0 12 0 50 255 4 717 13 14 15 0 0
 -.0135 .0045 0 .707106781186548 .707106781186548 0 0 0 -1 30 255 5 868 0 8 16 0
 0 +.009 -.04 .009 0 0 1 29 255 6 847 0 9 17 0 .009 .04 .01 19 8 CCCCCCCA5 owner
12 0 Z7 1 0 1 12 0 18 V0 16 255 8 866 0 ?19 0 20 5 0 0 1 18 255 9 845 0 21 0 22
 6 ?1 17 255 21 0 23 24 25 9 26 27 0 28 -18 22 826 0 29 9 30 17 ?1 17 29 0 31 32
 33 22 34 35 0 36 +18 30 807 0 37 22 38 39 ?1 29 17 828 0 22 39 6 .01 -.0045 .1
 29 39 809 0 30 40 17 .08 .0045 .01 29 40 783 0 38 41 39 0 .025 .06 18 38 781 0
 42 30 43 40 1e-6 1 29 41 773 0 43 44 40 0 .025 .09 18 43 771 0 45 38 46 41 1e-6
 1 29 44 763 0 46 47 41 0 -.025 .09 18 46 761 0 48 43 49 44 1e-6 1 29 47 760 0 4
9 50 44 0 -.025 .06 18 49 758 0 51 46 52 47 1e-6 1 29 50 613 0 52 53 47 .009 .00
9 .1 18 52 605 0 54 49 55 50 ?1 29 53 612 0 56 57 50 .009 -.009 .1 18 56 522 0 5
8 59 60 53 ?1 29 57 611 0 61 62 53 .0135 -.04 .009 18 61 469 0 63 64 65 57 ?1 29
 62 610 0 55 66 57 .0135 .04 .009 18 55 587 0 67 52 68 62 ?1 29 66 609 0 69 70 6
2 .08 .009 .009 18 69 480 0 71 72 64 66 ?1 29 70 608 0 68 73 66 .08 -.009 .009 1
8 68 575 0 74 55 75 70 ?1 29 73 530 0 75 76 70 .009 -.009 .0135 18 75 528 0 77 6
8 59 73 ?1 29 76 527 0 59 78 73 .009 -.04 .0135 18 59 525 0 79 75 56 76 ?1 29 78
 516 0 60 80 76 .009 .009 .0135 18 60 514 0 81 56 82 78 ?1 29 80 510 0 82 83 78
 .009 .04 .0135 18 82 508 0 84 60 85 80 ?1 29 83 502 0 85 86 80 .0135 .0045 .013
5 18 85 500 0 87 82 88 83 ?1 29 86 499 0 88 89 83 .08 .0045 .0135 18 88 497 0 90
 85 91 86 ?1 29 89 496 0 91 92 86 .0135 .0045 .1 18 91 494 0 93 88 72 89 ?1 29 9
2 488 0 72 94 89 .0135 .009 .009 18 72 486 0 95 91 69 92 ?1 29 94 474 0 64 96 92
 .0135 -.009 .009 18 64 472 0 97 69 61 94 ?1 29 96 460 0 65 98 94 .0135 -.0045 .
0135 18 65 458 0 99 61 100 96 ?1 29 98 457 0 100 101 96 .0135 -.0045 .1 18 100 4
55 0 102 65 103 98 ?1 29 101 454 0 103 104 98 .08 -.0045 .0135 18 103 452 0 105
 100 106 101 ?1 29 104 56 0 106 107 101 .08 .04 .009 18 106 19 0 108 103 109 104
 ?1 29 107 55 0 109 110 104 .08 -.04 .009 18 109 17 0 111 106 112 107 ?1 29 110
 41 0 113 114 107 0 -.04 0 18 113 11 0 115 116 117 110 ?1 29 114 40 0 116 118 11
0 0 .04 0 18 116 13 0 119 112 113 114 ?1 29 118 39 0 112 120 114 .08 .04 0 18 11
2 15 0 121 109 116 118 ?1 29 120 38 0 117 122 118 .08 -.04 0 18 117 10 0 123 113
 124 120 ?1 29 122 125 0 124 125 120 0 -.04 .1 18 124 86 0 126 117 127 122 ?1 29
 125 126 0 127 128 122 0 .04 .1 18 127 88 0 129 124 130 125 ?1 29 128 127 0 130
 131 125 .009 .04 .1 18 130 90 0 132 127 133 128 ?1 29 131 128 0 133 134 128 .00
9 -.04 .1 18 133 85 0 135 130 136 131 ?1 29 134 402 0 137 138 131 .015 -.0045 .1
 18 137 348 0 139 140 141 134 ?1 29 138 403 0 141 142 134 .08 -.0045 .015 18 141
 349 0 143 137 144 138 ?1 29 142 407 0 136 145 138 .015 .0045 .1 18 136 346 0 14
6 133 140 142 ?1 29 145 408 0 140 147 142 .08 .0045 .015 18 140 347 0 148 136 13
7 145 ?1 29 147 1125 0 144 149 145 .009 -.04 .01 18 144 947 0 19 141 150 147 ?1
 29 149 1126 0 150 151 147 0 .04 .01 18 150 980 0 152 144 153 149 ?1 29 151 1127
 0 153 154 149 0 -.04 .01 18 153 950 0 155 150 156 151 ?1 29 154 1128 0 156 157
 151 0 -.04 .009 18 156 952 0 158 153 159 154 ?1 29 157 1129 0 159 160 154 0 -.0
045 .009 18 159 984 0 161 156 162 157 ?1 29 160 1130 0 162 163 157 0 .0045 .009
 18 162 985 0 164 159 165 160 ?1 29 163 1131 0 165 166 160 0 .04 .009 18 165 982
 0 167 162 168 163 ?1 29 166 1132 0 168 169 163 .009 -.04 .009 18 168 977 0 170
 165 171 166 ?1 29 169 1134 0 171 172 166 .009 .04 .009 18 171 986 0 24 168 173
 169 ?1 29 172 1135 0 173 174 169 .009 -.0045 .1 18 173 970 0 175 171 176 172 ?1
 29 174 1136 0 176 177 172 .009 .0045 .1 18 176 971 0 178 173 179 174 ?1 29 177
 1138 0 179 180 174 .01 .0045 .1 18 179 972 0 32 176 181 177 ?1 29 180 1139 0 18
1 182 177 .08 .0045 .009 18 181 962 0 183 179 184 180 ?1 29 182 1140 0 184 185 1
80 .08 -.0045 .009 18 184 973 0 186 181 187 182 ?1 29 185 1141 0 187 188 182 .08
 -.0045 .01 18 187 975 0 189 184 190 185 ?1 29 188 1143 0 190 191 185 .009 .0045
 .01 18 190 987 0 26 187 192 188 ?1 29 191 1144 0 192 193 188 .01 -.0045 .01 18
 192 976 0 194 190 195 191 ?1 29 193 1145 0 195 196 191 .01 .0045 .01 18 195 969
 0 197 192 198 193 ?1 29 196 1150 0 198 199 193 .01 -.0045 .009 18 198 968 0 200
 195 201 196 ?1 29 199 1151 0 201 202 196 .01 .0045 .009 18 201 974 0 203 198 20
4 199 ?1 29 202 1152 0 204 205 199 .009 -.0045 .01 18 204 979 0 206 201 207 202
 ?1 29 205 1153 0 207 208 202 .009 .0045 .009 18 207 988 0 209 204 210 205 ?1 29
 208 1154 0 210 0 205 .009 -.0045 .009 18 210 978 0 211 207 0 208 ?1 17 211 0 21
2 213 170 210 214 215 0 216 +15 255 212 1058 0 170 217 0 17 213 0 212 218 211 20
7 216 219 0 0 -17 170 0 212 211 158 168 220 221 0 214 +17 214 0 222 19 223 168 2
11 215 0 224 -16 215 930 0 ?211 225 226 227 226 226 1 17 216 0 228 200 229 210 2
13 219 0 223 +15 228 1034 0 230 231 0 17 200 0 228 230 216 198 232 233 0 234 +17
 229 0 228 216 230 207 235 236 0 213 +16 219 944 0 ?216 237 238 239 0 0 1 17 223
 0 222 214 240 210 206 241 0 232 -15 222 1048 0 19 242 0 17 240 0 222 223 19 204
 243 225 0 244 -17 206 0 245 246 232 204 223 241 0 240 +16 241 931 0 ?206 247 24
8 249 0 0 1 17 232 0 245 206 250 210 200 233 0 0 -15 245 1022 0 250 251 0 17 250
 0 245 232 246 198 252 253 0 254 -16 233 912 0 ?200 236 255 256 0 0 1 16 236 915
 0 ?229 257 233 258 0 0 1 16 255 876 0 ?152 233 27 259 0 0 1 30 256 1100 0 233 2
59 260 0 +.0095 -.0045 .009 1 0 0 30 259 1102 0 255 261 256 0 +0 0 .01 0 1 0 30
 260 1099 0 257 256 258 0 +.01 0 .009 0 1 0 16 257 923 0 ?230 35 236 260 0 0 1 3
0 258 1098 0 236 260 262 0 +.0095 .0045 .009 -1 0 0 30 262 1097 0 253 258 263 0
 +.01 -.0045 .009 0 0 1 16 253 910 0 ?252 264 35 262 35 35 1 30 263 1096 0 265 2
62 266 0 +.01 .0045 .009 0 0 1 16 265 925 0 ?267 268 264 263 264 264 1 30 266 10
95 0 268 263 269 0 +.009 .0045 .009 0 0 1 16 268 918 0 ?270 271 265 266 0 0 1 30
 269 1094 0 271 266 272 0 +.009 -.0045 .009 0 0 1 16 271 917 0 ?273 274 268 269
 0 0 1 30 272 1089 0 274 269 275 0 +.01 0 .01 0 -1 0 16 274 929 0 ?33 276 271 27
2 0 0 1 30 275 1088 0 276 272 277 0 +.0095 .0045 .01 1 0 0 16 276 914 0 ?197 278
 274 275 0 0 1 30 277 1087 0 278 275 279 0 +.0095 -.0045 .01 -1 0 0 16 278 911 0
 ?244 280 276 277 0 0 1 30 279 1080 0 280 277 281 0 +.0045 -.04 .01 -1 0 0 16 28
0 874 0 ?155 282 278 279 0 0 1 30 281 397 0 283 279 284 0 +.08 .0045 .015 0 0 1
 16 283 498 0 ?148 285 286 281 0 0 1 30 284 396 0 286 281 287 0 +.015 .0045 .1 -
.607450107570797 0 .794357832977196 16 286 330 0 ?288 283 289 284 0 0 1 30 287 3
95 0 289 284 290 0 +.009 .0045 .1 -1 0 0 16 289 328 0 ?291 286 292 287 0 0 1 30
 290 392 0 292 287 293 0 +.08 -.0045 .015 0 0 1 16 292 453 0 ?143 289 294 290 0
 0 1 30 293 391 0 294 290 295 0 +.015 -.0045 .1 -.607450107570797 0 .79435783297
7196 16 294 340 0 ?296 292 297 293 0 0 1 30 295 390 0 297 293 298 0 +.009 -.0045
 .1 -1 0 0 16 297 341 0 ?299 294 300 295 0 0 1 30 298 388 0 301 295 302 0 +.015
 .0045 .1 0 -1 0 16 301 331 0 ?139 303 304 298 0 0 1 30 302 387 0 304 298 305 0
 +.08 .0045 .015 0 -1 0 16 304 333 0 ?306 301 307 302 0 0 1 30 305 386 0 307 302
 308 0 +.08 .0045 .009 0 -1 0 16 307 336 0 ?309 304 310 305 285 310 1 30 308 384
 0 311 305 312 0 +.009 .0045 .1 0 -1 0 16 311 329 0 ?313 314 315 308 303 315 1 3
1 255 312 265 0 316 308 317 0 +.025 -.025 .009 0 0 1 1 0 0 .005 16 316 226 0 ?31
8 319 314 312 0 0 1 31 317 264 0 320 312 321 0 +.065 -.025 .009 0 0 1 1 0 0 .005
 16 320 208 0 ?322 323 319 317 0 0 1 31 321 263 0 324 317 325 0 +.065 .025 .009
 0 0 1 1 0 0 .005 16 324 190 0 ?326 327 323 321 0 0 1 31 325 262 0 328 321 329 0
 +.025 .025 .009 0 0 1 1 0 0 .005 16 328 172 0 ?330 331 327 325 0 0 1 30 329 124
 0 221 325 332 0 +.0045 -.04 .009 1 0 0 16 221 75 0 ?170 333 331 329 331 331 1 3
0 332 120 0 333 329 334 0 +.009 -.04 .009 0 0 1 16 333 526 0 ?135 335 221 332 0
 0 1 30 334 119 0 335 332 336 0 +.009 .04 .009 0 0 1 16 335 509 0 ?132 337 333 3
34 0 0 1 30 336 118 0 337 334 338 0 +0 .04 .009 0 0 1 16 337 79 0 ?129 339 335 3
36 0 0 1 30 338 117 0 339 336 340 0 +0 -.04 .009 0 0 1 16 339 76 0 ?126 341 337
 338 0 0 1 30 340 116 0 342 338 343 0 +.009 0 .1 0 -1 0 16 342 84 0 ?344 345 341
 340 341 341 1 30 343 115 0 345 340 346 0 +.0045 .04 .1 1 0 0 16 345 80 0 ?347 3
48 342 343 0 0 1 30 346 114 0 348 343 349 0 +0 0 .1 0 1 0 16 348 77 0 ?350 351 3
45 346 0 0 1 30 349 113 0 351 346 352 0 +.0045 -.04 .1 -1 0 0 16 351 74 0 ?353 3
54 348 349 0 0 1 30 352 42 0 354 349 355 0 +.04 -.04 0 1 0 0 16 354 12 0 ?356 35
7 351 352 0 0 1 30 355 43 0 358 352 359 0 +.08 0 0 0 1 0 16 358 6 0 ?360 361 362
 355 0 0 1 30 359 44 0 362 355 363 0 +.04 .04 0 -1 0 0 16 362 16 0 ?364 358 357
 359 0 0 1 30 363 45 0 357 359 365 0 +0 0 0 0 -1 0 16 357 14 0 ?366 362 354 363
 0 0 1 30 365 50 0 361 363 367 0 +.08 -.04 0 0 0 1 16 361 18 0 ?368 369 358 365
 0 0 1 30 367 51 0 369 365 370 0 +.08 .04 0 0 0 1 16 369 20 0 ?371 372 361 367 0
 0 1 30 370 52 0 372 367 373 0 +0 .04 0 0 0 1 16 372 22 0 ?374 375 369 370 0 0 1
 30 373 53 0 375 370 376 0 +0 -.04 0 0 0 1 16 375 24 0 ?377 378 372 373 0 0 1 30
 376 59 0 379 373 380 0 +.08 0 .009 0 -1 0 16 379 25 0 ?381 382 378 376 378 378
 1 30 380 60 0 383 376 384 0 +.04 .04 .009 1 0 0 16 383 28 0 ?385 386 387 380 38
7 382 1 30 384 61 0 388 380 389 0 +0 0 .009 0 1 0 16 388 31 0 ?390 391 392 384 3
86 392 1 30 389 62 0 391 384 393 0 +.04 -.04 .009 -1 0 0 16 391 34 0 ?394 395 38
8 389 0 0 1 31 393 137 0 314 389 396 0 +.025 -.025 0 0 0 -1 -1 0 0 .005 16 314 2
28 0 ?397 316 311 393 0 0 1 31 396 142 0 319 393 398 0 +.065 -.025 0 0 0 -1 -1 0
 0 .005 16 319 210 0 ?399 320 316 396 0 0 1 31 398 147 0 323 396 400 0 +.065 .02
5 0 0 0 -1 -1 0 0 .005 16 323 192 0 ?401 324 320 398 0 0 1 31 400 152 0 327 398
 402 0 +.025 .025 0 0 0 -1 -1 0 0 .005 16 327 174 0 ?403 328 324 400 0 0 1 30 40
2 461 0 395 400 404 0 +.0135 -.0045 0 0 0 -1 16 395 459 0 ?99 405 391 402 0 0 1
 30 404 464 0 405 402 406 0 +0 -.0045 .0135 1 0 0 16 405 462 0 ?407 408 395 404
 0 0 1 30 406 475 0 408 404 409 0 +.0135 -.04 .009 0 -1 0 16 408 473 0 ?410 411
 405 406 0 0 1 30 409 478 0 411 406 412 0 +.04 -.009 .009 -1 0 0 16 411 476 0 ?9
7 413 408 409 0 0 1 30 412 489 0 413 409 414 0 +.0135 .0045 .009 0 -1 0 16 413 4
87 0 ?95 415 411 412 0 0 1 30 414 492 0 415 412 416 0 +.08 .009 .009 1 0 0 16 41
5 490 0 ?417 418 413 414 0 0 1 30 416 503 0 418 414 419 0 +.0135 .0045 .1 0 0 1
 16 418 501 0 ?93 420 415 416 0 0 1 30 419 506 0 420 416 421 0 +.009 .0045 .0135
 -1 0 0 16 420 504 0 ?87 422 418 419 0 0 1 30 421 517 0 422 419 423 0 +.009 .009
 .009 0 0 -1 16 422 515 0 ?81 424 420 421 0 0 1 30 423 520 0 424 421 425 0 +.009
 .04 .0135 0 1 0 16 424 518 0 ?84 426 422 423 0 0 1 30 425 531 0 426 423 427 0 +
.009 -.009 .009 0 0 1 16 426 529 0 ?428 429 424 425 0 0 1 30 427 534 0 429 425 4
30 0 +.009 -.0045 .0135 0 1 0 16 429 532 0 ?77 431 426 427 0 0 1 30 430 614 0 43
1 427 432 0 +.08 -.0045 .0135 0 -.707106781186548 -.707106781186548 16 431 536 0
 ?433 434 429 430 0 0 1 30 432 615 0 434 430 435 0 -.08 .009 .009 0 .70710678118
6548 -.707106781186548 16 434 545 0 ?90 436 431 432 0 0 1 30 435 616 0 436 432 4
37 0 -.009 .04 .0135 -.707106781186548 0 .707106781186548 16 436 548 0 ?438 439
 434 435 0 0 1 30 437 617 0 439 435 440 0 -.009 -.04 .0135 .707106781186548 0 -.
707106781186548 16 439 557 0 ?79 441 436 437 0 0 1 30 440 618 0 441 437 442 0 +.
009 -.009 .1 .707106781186548 .707106781186548 0 16 441 563 0 ?102 443 439 440 0
 0 1 30 442 619 0 443 440 444 0 -.0135 .0045 .1 .707106781186548 -.7071067811865
48 0 16 443 566 0 ?445 446 441 442 0 0 1 30 444 672 0 447 442 448 0 -.0135 -.009
 .009 0 .707106781186548 .707106781186547 16 447 650 0 ?449 450 451 444 0 0 1 30
 448 671 0 450 444 452 0 +.01125 -.00675 .0135 -.707106781186547 -.7071067811865
48 0 16 450 648 0 ?453 300 447 448 0 0 1 30 452 670 0 300 448 454 0 -.0135 -.009
 .009 -.707106781186548 0 .707106781186548 16 300 647 0 ?455 297 450 452 0 0 1 3
0 454 727 0 282 452 456 0 +.0135 .0045 .0135 0 -.707106781186548 .70710678118654
7 16 282 705 0 ?457 458 280 454 0 0 1 30 456 726 0 458 454 459 0 -.01125 .009 .0
1125 .707106781186548 0 -.707106781186548 16 458 703 0 ?460 451 282 456 0 0 1 30
 459 725 0 451 456 461 0 -.0135 .0045 .0135 -.707106781186547 .707106781186548 0
 16 451 702 0 ?462 447 458 459 0 0 1 31 461 741 0 446 459 463 0 +.065 -.025 .009
 0 0 1 1 0 0 .01 16 446 738 0 ?464 465 443 461 0 0 1 31 463 746 0 465 461 466 0
 +.025 -.025 .009 0 0 1 1 0 0 .01 16 465 743 0 ?467 468 446 463 0 0 1 31 466 751
 0 468 463 469 0 +.025 .025 .009 0 0 1 1 0 0 .01 16 468 748 0 ?470 471 465 466 0
 0 1 31 469 756 0 471 466 472 0 +.065 .025 .009 0 0 1 1 0 0 .01 16 471 753 0 ?47
3 474 468 469 0 0 1 133 255 472 766 0 475 469 476 0 +476 0 -.025 .06 0 -.025 .09
 0 1 17 475 0 477 478 51 46 479 474 472 0 +137 255 476 767 0 1 472 480 481 +482
 483 0 ?133 480 768 0 479 476 484 0 +484 0 -.025 .09 0 -.025 .06 1 0 141 255 481
 472 481 481 476 50 482 109 0 485 486 487 488 +0 0 .009 -1 0 0 0 0 1 134 255 483
 0 0 0 0 0 0 +489 490 136 255 489 1 2 2 2 5 FFF1 491 492 493 135 255 490 1 0 45
 255 4 491 .051 -.025 .081 -.025 127 255 2 492 2 2 128 255 2 493 0 1 14 255 485
 97 0 ?494 495 496 3 482 +11 11 494 495 18 50 486 110 0 494 497 482 0 +.0045 .04
 .009 0 1 0 0 0 1 50 487 108 0 495 482 498 0 +.0045 -.04 .009 0 -1 0 0 0 -1 141
 488 476 499 500 482 141 499 501 502 488 482 141 500 484 488 503 482 137 484 769
 0 1 480 504 505 -482 506 0 ?141 503 507 500 508 482 137 507 777 0 1 504 509 510
 +482 511 0 ?141 508 512 503 513 482 137 512 779 0 1 509 514 515 -482 516 0 ?141
 513 517 508 518 482 137 517 787 0 1 514 519 520 +482 521 0 ?141 518 522 513 502
 482 137 522 789 0 1 519 523 524 -482 525 0 ?141 502 526 518 499 482 137 526 796
 0 1 523 527 528 +482 529 0 ?133 523 795 0 51 522 526 0 +526 0 .025 .06 0 -.025
 .06 0 1 133 527 797 0 42 526 501 0 +501 0 -.025 .06 0 .025 .06 1 0 141 528 523
 528 528 526 134 529 0 0 0 0 0 0 +530 531 136 530 1 2 2 2 5 FFF1 532 533 534 135
 531 1 0 45 4 532 .051 .025 .051 -.025 127 2 533 2 2 128 2 534 0 1 17 42 0 535 4
5 479 38 51 536 527 537 -137 501 798 0 1 527 538 539 -482 540 0 ?30 538 813 0 54
1 501 542 0 +.08 .0045 .01 0 -1 0 141 539 527 539 539 501 134 540 0 0 0 0 0 0 +5
43 544 136 543 1 2 2 2 5 FFF1 545 546 547 135 544 1 0 45 4 545 .051 .025 .051 -.
025 127 2 546 2 2 128 2 547 0 1 16 541 811 0 ?189 548 536 538 0 0 1 30 542 815 0
 548 538 549 0 +.08 -.0045 .015 0 0 -1 16 548 814 0 ?186 550 541 542 0 0 1 30 54
9 818 0 550 542 551 0 +.08 .0045 .015 0 0 1 16 550 816 0 ?552 553 548 549 0 0 1
 30 551 832 0 553 549 554 0 +.01 .0045 .1 0 1 0 16 553 830 0 ?32 555 550 551 0 0
 1 30 554 834 0 555 551 556 0 +.009 .0045 .1 -1 0 0 16 555 833 0 ?178 557 553 55
4 0 0 1 30 556 837 0 557 554 558 0 +.009 -.0045 .1 1 0 0 16 557 835 0 ?36 559 55
5 556 0 0 1 30 558 848 0 559 556 16 0 +.009 .04 .009 0 0 -1 16 559 846 0 ?24 20
 557 558 0 0 1 30 16 851 0 20 558 5 0 +.0045 .04 .01 1 0 0 16 20 849 0 ?28 8 559
 16 0 0 1 17 28 0 560 26 152 9 561 20 0 562 +15 560 1050 0 155 563 0 17 26 0 560
 564 28 190 21 27 0 565 +17 152 0 560 28 155 150 566 255 0 561 +17 561 0 567 129
 562 150 28 20 0 568 -17 562 0 567 561 569 9 24 559 0 0 -15 567 850 0 561 494 0
 17 569 0 567 562 438 171 67 387 0 385 -17 24 0 23 570 21 171 562 559 0 218 +15
 23 1060 0 24 571 0 17 570 0 23 25 24 207 218 226 0 229 -17 218 0 212 167 213 17
1 570 226 0 569 +17 167 0 212 164 218 165 385 383 0 572 -16 226 871 0 ?218 215 5
73 227 215 215 1 16 573 905 0 ?194 226 574 575 0 0 1 30 227 1111 0 215 575 261 0
 +.009 0 .009 0 1 0 30 575 1113 0 573 576 227 0 +.049 -.0045 .01 -1 0 0 30 261 1
104 0 27 227 259 0 +.009 0 .01 0 -1 0 16 27 945 0 ?26 255 225 261 225 225 1 16 2
25 885 0 ?243 27 215 261 27 27 1 17 243 0 560 155 564 144 240 225 0 577 +17 155
 0 560 152 243 153 577 280 0 566 +17 564 0 560 243 26 204 565 574 0 578 -17 577
 0 579 224 580 144 155 280 0 0 -15 579 867 0 224 495 0 17 224 0 579 63 577 168 1
9 8 0 581 -17 580 0 579 577 353 153 126 339 0 0 -17 353 0 579 580 135 124 582 35
1 0 583 +17 126 0 496 350 566 124 580 339 0 353 +15 496 857 0 566 485 535 17 350
 0 496 568 126 127 583 348 0 584 +17 566 0 496 126 568 153 152 255 0 580 -17 568
 0 496 566 350 150 129 337 0 0 -17 129 0 567 347 561 127 568 337 0 350 +17 347 0
 567 585 129 130 584 345 0 586 +17 585 0 567 438 347 82 132 335 0 587 -17 584 0
 588 583 586 127 347 345 0 0 -17 586 0 588 584 54 130 344 342 0 0 -15 588 94 0 5
82 589 0 17 54 0 588 586 590 52 313 311 0 344 -17 344 0 591 81 132 52 586 342 0
 445 +15 591 298 0 81 592 0 17 81 0 591 84 344 60 593 422 0 594 +17 132 0 591 34
4 84 130 585 335 0 347 +17 445 0 595 313 291 52 596 443 0 593 +15 595 836 0 597
 598 0 17 313 0 595 599 445 176 54 311 0 0 +17 291 0 595 445 146 91 600 289 0 59
6 +17 596 0 601 602 593 91 445 443 0 0 -17 593 0 601 596 603 52 81 422 0 0 -15 6
01 687 0 596 14 0 17 603 0 601 593 602 60 462 451 0 460 -17 602 0 601 603 596 85
 93 418 0 462 -17 462 0 604 605 460 85 603 451 0 457 +17 460 0 604 462 605 60 60
6 458 0 0 +15 604 691 0 460 607 0 17 605 0 604 460 462 72 457 282 0 608 -17 606
 0 609 610 594 72 460 458 0 605 -15 609 689 0 587 611 0 17 610 0 609 587 606 55
 95 413 0 0 -17 594 0 609 606 587 60 84 424 0 603 -17 587 0 609 594 610 82 438 4
36 0 0 -17 84 0 591 132 81 82 594 424 0 585 +17 438 0 567 569 585 55 587 436 0 6
10 +17 95 0 612 417 613 72 610 413 0 606 +15 612 318 0 95 614 0 17 417 0 612 615
 95 69 608 415 0 381 +17 613 0 612 95 615 55 108 382 0 438 -17 615 0 612 613 417
 106 381 379 0 371 -17 108 0 616 121 67 106 613 382 0 615 +16 382 484 0 ?108 387
 379 380 383 387 1 16 387 843 0 ?67 383 382 380 382 383 1 17 67 0 616 108 385 55
 569 387 0 613 +15 616 26 0 374 617 0 17 385 0 616 67 374 171 167 383 0 0 +17 37
4 0 616 385 364 165 119 372 0 0 +17 364 0 616 374 121 116 618 362 0 619 +17 119
 0 620 366 572 116 374 372 0 364 -15 620 29 0 377 621 0 17 366 0 620 377 119 113
 619 357 0 622 +17 572 0 620 119 623 165 164 386 0 374 +17 623 0 620 572 390 162
 161 392 0 0 +17 164 0 212 161 167 162 572 386 0 623 -16 386 305 0 ?572 392 383
 384 392 388 1 16 392 302 0 ?623 388 386 384 388 386 1 17 161 0 212 158 164 159
 623 392 0 390 -17 158 0 212 170 161 156 390 388 0 220 -17 390 0 620 623 377 159
 158 388 0 0 +17 377 0 620 390 366 156 115 375 0 0 +17 115 0 624 356 220 113 377
 375 0 366 -15 624 32 0 368 625 0 17 356 0 624 368 115 117 622 354 0 626 +17 220
 0 624 115 581 156 170 221 0 377 -17 581 0 624 220 394 168 63 331 0 0 -17 394 0
 624 581 368 61 627 391 0 628 +17 63 0 579 79 224 61 581 331 0 410 +16 331 861 0
 ?63 221 328 329 221 221 1 17 79 0 579 135 63 59 628 439 0 629 +17 410 0 630 627
 97 61 631 408 0 394 +15 630 70 0 632 633 0 17 627 0 630 632 410 109 394 391 0 3
68 -17 97 0 630 410 632 64 634 411 0 631 +17 631 0 635 636 628 64 410 408 0 455
 -15 635 632 0 628 637 0 17 636 0 635 638 631 75 455 300 0 453 -17 628 0 635 631
 638 61 79 439 0 0 -17 455 0 639 640 453 64 636 300 0 449 +15 639 636 0 453 641
 0 17 640 0 639 453 455 65 449 447 0 642 -17 453 0 639 455 640 75 643 450 0 0 +1
7 449 0 644 634 642 64 640 447 0 0 +15 644 638 0 449 645 0 17 634 0 644 105 449
 68 97 411 0 0 -17 642 0 644 449 105 65 407 405 0 0 -17 105 0 644 642 634 103 43
3 431 0 407 -17 407 0 646 143 99 103 642 405 0 647 +15 646 373 0 99 648 0 17 143
 0 646 296 407 141 647 292 0 306 +17 99 0 646 407 299 65 649 395 0 643 +17 647 0
 650 433 306 103 143 292 0 0 -15 650 817 0 651 652 0 17 433 0 650 653 647 68 105
 431 0 634 +17 306 0 650 647 148 141 654 304 0 655 +17 148 0 650 306 90 140 656
 283 0 654 +17 654 0 657 288 655 140 306 304 0 658 -17 655 0 657 654 139 141 296
 294 0 0 -15 657 365 0 655 659 0 17 139 0 657 655 288 137 146 301 0 660 +17 296
 0 646 299 143 137 655 294 0 0 +17 299 0 646 99 296 100 660 297 0 649 +17 660 0
 595 146 102 137 299 297 0 296 -17 649 0 661 662 643 100 99 395 0 0 -15 661 634
 0 662 663 0 17 662 0 661 664 649 56 102 441 0 0 -17 643 0 661 649 664 65 453 45
0 0 640 -17 664 0 661 643 662 75 428 426 0 636 -17 428 0 665 666 77 56 664 426 0
 667 +15 665 104 0 629 668 0 17 666 0 665 629 428 133 667 341 0 582 +17 77 0 665
 428 629 75 638 429 0 664 +17 667 0 588 669 582 56 666 341 0 662 -17 669 0 588 5
90 667 173 58 303 0 0 -17 582 0 588 667 583 133 353 351 0 0 -16 341 523 0 ?666 3
42 339 340 342 342 1 17 583 0 588 582 584 124 350 348 0 0 -17 590 0 588 54 669 1
76 175 315 0 313 -17 58 0 595 102 597 56 669 303 0 428 +16 303 824 0 ?58 315 301
 308 315 311 1 16 315 821 0 ?175 311 303 308 311 303 1 17 175 0 670 578 270 173
 590 315 0 273 +15 670 1030 0 175 671 0 17 578 0 670 565 175 204 273 271 0 0 -17
 270 0 670 175 565 176 672 268 0 590 +17 273 0 673 36 244 173 578 271 0 597 +15
 673 1028 0 36 674 0 17 36 0 673 34 273 22 597 557 0 675 +17 244 0 673 273 34 20
4 246 278 0 564 +17 597 0 595 58 675 173 36 557 0 669 -17 675 0 595 597 599 22 3
2 553 0 0 -17 599 0 595 675 313 179 178 555 0 0 -17 32 0 31 676 29 179 675 553 0
 677 +15 31 1036 0 32 678 0 17 676 0 31 33 32 195 677 264 0 267 -17 677 0 679 17
8 197 179 676 264 0 599 +15 679 1032 0 178 680 0 17 178 0 679 672 677 176 599 55
5 0 270 +17 197 0 679 677 672 195 681 276 0 682 +16 264 919 0 ?677 265 253 263 2
65 265 1 17 672 0 679 197 178 190 270 268 0 25 -17 681 0 683 209 267 190 197 276
 0 672 -17 682 0 684 37 194 195 33 274 0 676 -15 684 1046 0 189 685 0 17 37 0 68
4 189 682 30 686 247 0 552 +17 194 0 684 682 189 192 687 573 0 246 +17 33 0 31 2
9 676 192 682 274 0 0 +17 189 0 684 194 37 187 688 541 0 687 +17 687 0 689 186 2
52 187 194 573 0 690 -17 246 0 245 250 206 192 244 278 0 34 -17 34 0 673 244 36
 192 29 35 0 252 -16 35 916 0 ?29 253 257 262 253 253 1 17 252 0 689 687 254 192
 250 253 0 33 +15 689 1044 0 186 691 0 17 254 0 689 252 186 198 692 238 0 0 -17
 186 0 689 254 687 184 690 548 0 692 +17 692 0 693 183 234 184 254 238 0 653 +16
 238 928 0 ?692 219 0 694 0 0 1 30 694 1124 0 238 0 695 0 +.049 -.0045 .009 1 0
 0 30 695 1122 0 237 694 239 0 +.049 .0045 .009 -1 0 0 16 237 902 0 ?203 248 219
 695 0 0 1 30 239 1121 0 219 695 696 0 +.009 0 .009 0 -1 0 30 696 1118 0 248 239
 249 0 +.009 .0045 .009 0 0 1 16 248 913 0 ?25 241 237 696 0 0 1 30 249 1117 0 2
41 696 697 0 +.009 -.0045 .009 0 0 1 30 697 1115 0 247 249 576 0 +.049 .0045 .01
 1 0 0 16 247 926 0 ?37 574 241 697 0 0 1 30 576 1114 0 574 697 575 0 +.009 0 .0
1 0 1 0 16 574 933 0 ?565 573 247 576 0 0 1 17 565 0 670 270 578 190 564 574 0 6
81 +17 25 0 23 21 570 190 209 248 0 0 +17 209 0 683 235 681 207 25 248 0 570 -15
 683 1024 0 209 698 0 17 235 0 683 267 209 201 229 236 0 699 -17 267 0 683 681 2
35 195 699 265 0 686 +17 699 0 700 701 686 201 267 265 0 230 -15 700 1042 0 552
 702 0 17 701 0 700 552 699 181 203 237 0 651 -17 686 0 700 699 552 195 37 247 0
 0 -17 230 0 228 229 200 201 234 257 0 0 +17 234 0 693 692 203 198 230 257 0 250
 -15 693 1040 0 183 703 0 17 203 0 693 234 183 201 701 237 0 235 +17 183 0 693 2
03 692 181 704 310 0 701 -17 704 0 705 74 309 184 183 310 0 0 +16 310 802 0 ?704
 307 285 305 307 285 1 16 285 805 0 ?74 310 283 305 310 307 1 17 74 0 705 111 70
4 68 653 285 0 632 +15 705 7 0 360 706 0 17 111 0 705 123 74 109 632 378 0 627 +
17 653 0 650 690 433 184 74 285 0 704 -17 632 0 630 97 627 68 111 378 0 433 -16
 378 467 0 ?111 379 375 376 379 379 1 17 690 0 650 688 653 187 186 548 0 0 -17 6
88 0 650 651 690 30 189 541 0 0 -17 651 0 650 71 688 181 552 550 0 309 -17 71 0
 650 90 651 69 309 307 0 707 -17 552 0 700 686 701 30 651 550 0 688 +17 309 0 70
5 704 381 181 71 307 0 0 +17 381 0 705 309 371 69 615 379 0 0 +17 371 0 705 381
 360 106 121 369 0 0 +17 360 0 705 371 123 112 626 358 0 0 +17 121 0 616 364 108
 112 371 369 0 618 -17 618 0 708 626 619 112 364 362 0 360 -15 708 8 0 626 709 0
 17 626 0 708 622 618 117 360 358 0 0 -17 619 0 708 618 622 116 366 357 0 0 -17
 622 0 708 619 626 113 356 354 0 0 -14 709 9 0 ?706 617 710 3 711 +0 0 706 617 1
8 14 706 2 0 ?589 709 705 3 712 +0 0 589 709 18 14 617 27 0 ?709 621 616 3 713 +
0 0 709 621 18 15 710 151 0 714 709 715 50 711 37 0 709 498 712 0 +.04 0 0 0 0 -
1 -1 0 0 13 18 4 0 0 0 0 0 0 7 11 14 11 800 0 ?716 0 477 3 482 +485 485 716 0 18
 14 716 757 0 ?717 11 718 3 719 +717 614 717 11 18 15 477 759 0 537 11 0 17 537
 0 477 51 478 38 45 720 519 0 -17 51 0 477 475 537 49 42 536 523 479 +17 478 0 4
77 537 475 43 48 721 504 0 +17 45 0 535 48 42 43 537 720 514 478 +16 720 782 0 1
e-6 45 536 721 0 0 0 1 133 519 788 0 537 517 522 0 +522 0 .025 .09 0 .025 .06 1
 0 16 536 791 0 1e-6 51 541 720 0 0 0 1 16 721 772 0 1e-6 478 720 474 0 0 0 1 16
 474 762 0 1e-6 475 721 471 0 0 0 1 15 535 792 0 42 485 0 17 48 0 535 479 45 46
 478 721 509 475 -133 514 786 0 45 512 517 0 +517 0 .025 .06 0 .025 .09 0 1 17 4
79 0 535 42 48 49 475 474 480 0 -133 509 778 0 48 507 512 0 +512 0 .025 .09 0 -.
025 .09 1 0 133 504 776 0 478 484 507 0 +507 0 -.025 .09 0 .025 .09 0 1 14 717 7
52 0 ?722 716 723 3 719 +722 716 722 716 18 15 718 164 0 724 716 725 50 719 54 0
 614 726 727 0 +.04 0 .009 0 0 1 1 0 0 14 614 36 0 ?625 668 728 3 719 +716 633 6
25 668 18 14 625 33 0 ?621 614 624 3 726 +0 0 621 614 18 14 668 296 0 ?614 633 6
65 3 497 +592 592 614 633 18 15 728 755 0 729 614 730 14 633 316 0 ?668 731 732
 3 719 +614 731 668 731 18 14 731 742 0 ?633 722 733 3 719 +633 722 633 722 18 1
5 732 745 0 734 633 735 17 734 0 732 734 734 0 467 465 0 0 -15 735 740 0 736 633
 630 17 736 0 735 736 736 0 464 446 0 0 -17 464 0 737 464 464 0 736 446 0 0 +15
 737 739 0 464 731 0 17 467 0 738 467 467 0 734 465 0 0 +15 738 744 0 467 722 0
 14 722 747 0 ?731 717 739 3 719 +731 717 731 717 18 15 739 156 0 740 722 738 17
 740 0 739 740 740 0 318 316 0 0 -17 318 0 741 318 318 0 740 316 0 0 +15 741 240
 0 318 742 743 14 742 239 0 ?744 592 741 3 745 -0 0 744 592 18 15 743 241 0 397
 742 0 17 397 0 743 397 397 0 746 314 0 0 +17 746 0 747 746 746 0 397 314 0 0 -1
5 747 136 0 746 709 708 14 744 221 0 ?748 742 749 3 750 -0 0 748 742 18 14 592 1
03 0 ?742 494 591 3 497 +668 668 742 494 18 51 255 745 250 0 742 751 497 0 +.025
 -.025 -.005 0 0 1 .005 1 0 0 51 751 253 0 752 753 745 0 +.025 .025 -.005 0 0 1
 .005 1 0 0 50 497 111 0 592 745 486 0 +.009 0 .009 1 0 0 0 0 -1 14 752 185 0 ?5
98 748 754 3 751 -0 0 598 748 18 51 753 256 0 748 750 751 0 +.065 .025 -.005 0 0
 1 .005 1 0 0 14 748 203 0 ?752 744 755 3 753 -0 0 752 744 18 51 750 259 0 744 7
56 753 0 +.065 -.025 -.005 0 0 1 .005 1 0 0 50 756 376 0 598 757 750 0 +.009 .00
45 .1 0 0 1 1 0 0 14 598 362 0 ?659 752 595 3 756 +0 0 659 752 18 50 757 377 0 6
59 758 756 0 +.015 .0045 .1 .794357832977196 0 .607450107570797 .607450107570797
 0 -.794357832977196 14 659 364 0 ?652 598 657 3 757 +0 0 652 598 18 50 758 378
 0 652 759 757 0 +.08 .0045 .015 1 0 0 0 0 -1 14 652 366 0 ?760 659 650 3 758 +0
 0 760 659 18 50 759 381 0 648 761 758 0 +0 -.0045 0 0 1 0 0 0 1 14 648 372 0 ?6
37 760 646 3 759 -0 0 637 760 18 50 761 382 0 760 762 759 0 +0 .0045 0 0 1 0 0 0
 1 14 760 370 0 ?648 652 763 3 761 +0 0 648 652 18 50 762 1064 0 674 764 761 0 +
.0095 -.0045 .009 0 -1 0 0 0 -1 14 674 1027 0 ?671 698 673 3 762 -251 251 671 69
8 18 50 764 1065 0 671 765 762 0 +.009 0 .009 -1 0 0 0 0 1 14 671 1029 0 ?680 67
4 670 3 764 -0 0 680 674 18 50 765 1066 0 680 766 764 0 +.0095 .0045 .009 0 1 0
 0 0 1 14 680 1031 0 ?231 671 679 3 765 -698 698 231 671 18 50 766 1067 0 678 76
7 765 0 +.01 0 .009 1 0 0 0 0 -1 14 678 1035 0 ?703 231 31 3 766 -0 0 703 231 18
 50 767 1068 0 231 768 766 0 +.0095 0 .009 0 0 -1 -1 0 0 14 231 1033 0 ?678 680
 228 3 767 -0 0 678 680 18 50 768 1069 0 563 769 767 0 +.0045 0 .01 0 0 1 1 0 0
 14 563 1049 0 ?217 242 560 3 768 -0 0 217 242 18 50 769 1073 0 571 770 768 0 +.
009 0 .009 1 0 0 0 0 -1 14 571 1059 0 ?0 217 23 3 769 -242 242 0 217 18 50 770 1
074 0 217 771 769 0 +.0045 0 .009 0 0 -1 -1 0 0 14 217 1057 0 ?571 563 212 3 770
 -0 0 571 563 18 50 771 1075 0 685 772 770 0 +.049 0 .01 0 0 1 1 0 0 14 685 1045
 0 ?242 691 684 3 771 -0 0 242 691 18 50 772 1076 0 691 773 771 0 +.049 -.0045 .
009 0 -1 0 0 0 -1 14 691 1043 0 ?685 702 689 3 772 -0 0 685 702 18 50 773 1077 0
 702 774 772 0 +.049 .0045 .009 0 1 0 0 0 1 14 702 1041 0 ?691 703 700 3 773 -0
 0 691 703 18 50 774 1079 0 703 0 773 0 +.049 0 .009 0 0 -1 -1 0 0 14 703 1039 0
 ?702 678 693 3 774 -0 0 702 678 18 14 242 1047 0 ?563 685 222 3 769 -571 571 56
3 685 18 14 698 1023 0 ?674 251 683 3 765 -680 680 674 251 18 14 251 1021 0 ?698
 775 245 3 762 -674 674 698 775 18 14 775 692 0 ?251 607 776 3 777 -0 0 251 607
 18 14 607 690 0 ?775 611 604 3 778 +0 0 775 611 18 15 776 693 0 457 775 0 50 77
7 723 779 775 780 778 0 -.04 .009 .009 0 .707106781186548 .707106781186548 -1 0
 0 81 255 2 779 724 781 777 0 0 782 0 783 784 50 780 662 785 637 786 777 0 -.009
 0 .0135 .707106781186548 0 .707106781186548 0 -1 0 50 778 721 782 607 777 15 0
 +.0135 .0045 .0135 .577350269189626 .577350269189626 .577350269189626 .70710678
1186548 0 -.707106781186548 81 2 782 722 781 778 0 0 787 779 788 789 50 15 719 7
87 611 778 4 0 -.009 0 .0135 .707106781186548 0 .707106781186548 0 -1 0 81 2 787
 720 781 15 0 0 13 782 790 791 14 611 688 0 ?607 14 609 3 15 -0 0 607 14 18 14 1
4 686 0 ?611 645 601 3 4 -0 0 611 645 18 14 645 637 0 ?14 641 644 3 727 -0 0 14
 641 18 14 641 635 0 ?645 663 639 3 792 +0 0 645 663 18 50 727 668 793 645 719 7
92 0 +0 -.0045 .0135 0 .707106781186548 -.707106781186548 1 0 0 81 2 793 669 781
 727 0 0 794 13 795 796 50 792 666 794 641 727 786 0 +.0135 -.009 .009 .57735026
9189626 -.577350269189626 .577350269189626 .707106781186548 0 -.707106781186548
 81 2 794 667 781 792 0 0 797 793 798 799 50 786 664 797 663 792 780 0 +.009 -.0
09 .009 -.707106781186548 .707106781186548 0 0 0 1 81 2 797 665 781 786 0 0 785
 794 800 801 14 663 633 0 ?641 637 661 3 786 -0 0 641 637 18 14 637 631 0 ?663 6
48 635 3 780 -0 0 663 648 18 80 255 2 781 802 803 8044 0 0 0 0 3 5 0 0 0 FFFFTFF
FTTFFFF3 2 81 2 785 663 781 780 0 0 0 797 804 805 84 255 6 800 BAAAAB83 255 3 80
1 0 .00636396103067893 .0045 84 6 804 BAAAAB83 3 805 0 .00636396103067893 .0045
 79 255 17 803 SDL/TYSA_BLEND_ID84 6 798 IAAAIB83 1 799 .0045 81 2 13 718 781 4
 0 0 793 787 806 807 84 6 795 BAAAAB83 3 796 0 .00636396103067893 .0045 84 6 806
 BAAAAB83 3 807 0 .00636396103067893 .0045 84 6 790 BAAAAB83 3 791 0 .0063639610
3067893 .0045 84 6 788 IAAAIB83 1 789 .0045 84 6 783 BAAAAB83 3 784 0 .006363961
03067893 .0045 17 457 0 776 808 608 85 605 282 0 0 +17 808 0 776 707 457 88 87 4
20 0 0 -17 608 0 776 457 707 72 417 415 0 0 -17 707 0 776 608 808 69 90 434 0 41
7 -17 90 0 650 148 71 88 707 434 0 656 +17 656 0 763 87 658 88 148 283 0 808 -15
 763 371 0 656 760 0 17 87 0 763 93 656 85 808 420 0 602 +17 658 0 763 656 600 1
40 288 286 0 0 -17 600 0 763 658 93 136 291 289 0 288 -17 288 0 657 139 654 136
 658 286 0 0 +17 93 0 763 600 87 91 602 418 0 291 +15 755 204 0 326 748 809 17 3
26 0 755 326 326 0 724 324 0 0 +15 809 205 0 401 748 0 17 401 0 809 401 401 0 81
0 323 0 0 +17 810 0 715 810 810 0 401 323 0 0 -15 715 146 0 810 709 811 15 811 1
41 0 812 709 747 17 812 0 811 812 812 0 399 319 0 0 -17 399 0 813 399 399 0 812
 319 0 0 +15 813 223 0 399 744 0 17 724 0 718 724 724 0 326 324 0 0 -15 754 186
 0 330 752 814 17 330 0 754 330 330 0 815 328 0 0 +15 814 187 0 403 752 0 17 403
 0 814 403 403 0 714 327 0 0 +17 714 0 710 714 714 0 403 327 0 0 -17 815 0 723 8
15 815 0 330 328 0 0 -15 723 168 0 815 717 816 15 816 749 0 470 717 0 17 470 0 8
16 470 470 0 817 468 0 0 +17 817 0 730 817 817 0 470 468 0 0 -15 730 750 0 817 6
14 612 14 494 99 0 ?592 485 567 3 486 +0 0 592 485 18 15 749 222 0 322 744 813 1
7 322 0 749 322 322 0 818 320 0 0 +17 818 0 733 818 818 0 322 320 0 0 -15 733 16
0 0 818 731 737 17 729 0 728 729 729 0 473 471 0 0 -17 473 0 725 473 473 0 729 4
71 0 0 +15 725 754 0 473 716 0 14 621 30 0 ?617 625 620 3 819 +0 0 617 625 18 50
 726 49 0 625 819 719 0 +.04 -.04 0 0 -1 0 0 0 -1 50 819 48 0 621 713 726 0 +0 0
 0 -1 0 0 0 0 1 50 713 47 0 617 712 819 0 +.04 .04 0 0 1 0 0 0 1 50 712 46 0 706
 711 713 0 +.08 0 0 1 0 0 0 0 -1 50 498 107 0 589 487 711 0 +.0045 0 .1 0 0 1 1
 0 0 14 589 93 0 ?495 706 588 3 498 +0 0 495 706 18 14 495 95 0 ?485 589 579 3 4
87 +0 0 485 589 18 17 123 0 705 360 111 117 368 361 0 356 -17 368 0 624 394 356
 109 123 361 0 0 +17 102 0 595 660 58 100 662 441 0 299 +17 629 0 665 77 666 59
 135 333 0 638 -17 638 0 635 628 636 59 77 429 0 0 -17 135 0 579 353 79 133 629
 333 0 666 +17 146 0 595 291 660 136 139 301 0 600 -17 19 0 222 240 214 144 224
 8 0 243 +141 524 519 524 524 522 134 525 0 0 0 0 0 0 +820 821 136 820 1 2 2 2 5
 FFF1 822 823 824 135 821 1 0 45 4 822 .051 .025 .081 .025 127 2 823 2 2 128 2 8
24 0 1 141 520 514 520 520 517 134 521 0 0 0 0 0 0 +825 826 136 825 1 2 2 2 5 FF
F1 827 828 829 135 826 1 0 45 4 827 .051 .025 .081 .025 127 2 828 2 2 128 2 829
 0 1 141 515 509 515 515 512 134 516 0 0 0 0 0 0 +830 831 136 830 1 2 2 2 5 FFF1
 832 833 834 135 831 1 0 45 4 832 .081 -.025 .081 .025 127 2 833 2 2 128 2 834 0
 1 141 510 504 510 510 507 134 511 0 0 0 0 0 0 +835 836 136 835 1 2 2 2 5 FFF1 8
37 838 839 135 836 1 0 45 4 837 .081 -.025 .081 .025 127 2 838 2 2 128 2 839 0 1
 141 505 480 505 505 484 134 506 0 0 0 0 0 0 +840 841 136 840 1 2 2 2 5 FFF1 842
 843 844 135 841 1 0 45 4 842 .051 -.025 .081 -.025 127 2 843 2 2 128 2 844 0 1
 19 12 5 0 1 0 7 3 S0 74 4 CI16 index_map_offset0 0 1 dCCZ20 10 1 0 0 779 0 0 0
 0 0 0 0 0 0 0 0 0 0 0 0 0 0 0 0 1 0 
