**ABCDEFGHIJKLMNOPQRSTUVWXYZabcdefghijklmnopqrstuvwxyz**************************
**PARASOLID !"#$%&'()*+,-./:;<=>?@[\]^_`{|}~0123456789**************************
**PART1;
MC=unknown;
MC_MODEL=unknown;
MC_ID=unknown;
OS=unknown;
OS_RELEASE=unknown;
FRU=sdl_parasolid_customer_support;
APPL=Example Application;
SITE=unknown;
USER=unknown;
FORMAT=text;
GUISE=transmit;
KEY=model;
FILE=model.X_T;
DATE=unknown;
**PART2;
SCH=SCH_3200152_32001;
USFLD_SIZE=0;
**PART3;
**END_OF_HEADER*****************************************************************
T51 : TRANSMIT FILE created by modeller version 320015223 SCH_3200152_32001_1300
6227 0 12 34 CCCCCCI4 mesh1006 0 I8 polyline1008 0 CCCCCCCDI5 owner1040 0 CCCCCC
I13 boundary_mesh1006 0 I17 boundary_polyline1008 0 CCCA16 index_map_offset0 0 1
 dA9 index_map82 0 A17 node_id_index_map82 0 A20 schema_embedding_map82 0 A5 chi
ld12 0 A14 lowest_node_id0 0 1 dA16 mesh_offset_data206 0 Z1 1066 0 2 0 0 0 0 0
 0 1e3 1e-8 0 0 0 1 0 1 1 3 4 5 6 0 0 7 8 9 0 0 0 0 0 0 0 70 11 CI9 list_type0 0
 1 uI10 notransmit0 0 1 lCCCDCCDI12 finger_index0 0 1 dI12 finger_block1012 0 CZ
2 0 4 T1 0 0 1 20 1 10 10 13 255 3 3 0 1 0 11 0 0 12 0 50 255 4 717 13 14 15 0 0
 -.0135 .0045 0 .707106781186548 .707106781186548 0 0 0 -1 30 255 5 836 0 8 16 0
 0 +.009 -.0045 .1 1 0 0 29 255 6 827 0 9 17 0 .01 -.0045 .1 19 8 CCCCCCCA5 owne
r12 0 Z7 1 0 1 12 0 18 V0 16 255 8 834 0 ?19 0 20 5 0 0 1 18 255 9 825 0 21 0 22
 6 ?1 17 255 21 0 23 24 25 9 26 27 0 19 +18 22 804 0 28 9 29 17 ?1 17 28 0 30 31
 32 22 33 34 0 35 +18 29 781 0 36 22 37 38 1e-6 1 29 17 806 0 22 38 6 .08 -.0045
 .009 29 38 783 0 29 39 17 0 .025 .06 29 39 773 0 37 40 38 0 .025 .09 18 37 771
 0 41 29 42 39 1e-6 1 29 40 763 0 42 43 39 0 -.025 .09 18 42 761 0 44 37 45 40 1
e-6 1 29 43 760 0 45 46 40 0 -.025 .06 18 45 758 0 47 42 48 43 1e-6 1 29 46 613
 0 48 49 43 .009 .009 .1 18 48 605 0 50 45 51 46 ?1 29 49 612 0 52 53 46 .009 -.
009 .1 18 52 522 0 54 55 56 49 ?1 29 53 611 0 57 58 49 .0135 -.04 .009 18 57 469
 0 59 60 61 53 ?1 29 58 610 0 51 62 53 .0135 .04 .009 18 51 587 0 63 48 64 58 ?1
 29 62 609 0 65 66 58 .08 .009 .009 18 65 480 0 67 68 60 62 ?1 29 66 608 0 64 69
 62 .08 -.009 .009 18 64 575 0 70 51 71 66 ?1 29 69 530 0 71 72 66 .009 -.009 .0
135 18 71 528 0 73 64 55 69 ?1 29 72 527 0 55 74 69 .009 -.04 .0135 18 55 525 0
 75 71 52 72 ?1 29 74 516 0 56 76 72 .009 .009 .0135 18 56 514 0 77 52 78 74 ?1
 29 76 510 0 78 79 74 .009 .04 .0135 18 78 508 0 80 56 81 76 ?1 29 79 502 0 81 8
2 76 .0135 .0045 .0135 18 81 500 0 83 78 84 79 ?1 29 82 499 0 84 85 79 .08 .0045
 .0135 18 84 497 0 86 81 87 82 ?1 29 85 496 0 87 88 82 .0135 .0045 .1 18 87 494
 0 89 84 68 85 ?1 29 88 488 0 68 90 85 .0135 .009 .009 18 68 486 0 91 87 65 88 ?
1 29 90 474 0 60 92 88 .0135 -.009 .009 18 60 472 0 93 65 57 90 ?1 29 92 460 0 6
1 94 90 .0135 -.0045 .0135 18 61 458 0 95 57 96 92 ?1 29 94 457 0 96 97 92 .0135
 -.0045 .1 18 96 455 0 98 61 99 94 ?1 29 97 454 0 99 100 94 .08 -.0045 .0135 18
 99 452 0 101 96 102 97 ?1 29 100 306 0 102 103 97 0 .0045 .009 18 102 304 0 104
 99 105 100 ?1 29 103 303 0 105 106 100 0 -.0045 .009 18 105 301 0 107 102 108 1
03 ?1 29 106 58 0 108 109 103 0 -.04 .009 18 108 23 0 110 105 111 106 ?1 29 109
 57 0 111 112 106 0 .04 .009 18 111 21 0 113 108 114 109 ?1 29 112 56 0 114 115
 109 .08 .04 .009 18 114 19 0 116 111 117 112 ?1 29 115 55 0 117 118 112 .08 -.0
4 .009 18 117 17 0 119 114 120 115 ?1 29 118 41 0 121 122 115 0 -.04 0 18 121 11
 0 123 124 125 118 ?1 29 122 40 0 124 126 118 0 .04 0 18 124 13 0 127 120 121 12
2 ?1 29 126 39 0 120 128 122 .08 .04 0 18 120 15 0 129 117 124 126 ?1 29 128 38
 0 125 130 126 .08 -.04 0 18 125 10 0 131 121 132 128 ?1 29 130 125 0 132 133 12
8 0 -.04 .1 18 132 86 0 134 125 135 130 ?1 29 133 126 0 135 136 130 0 .04 .1 18
 135 88 0 137 132 138 133 ?1 29 136 127 0 138 139 133 .009 .04 .1 18 138 90 0 14
0 135 141 136 ?1 29 139 128 0 141 142 136 .009 -.04 .1 18 141 85 0 143 138 144 1
39 ?1 29 142 402 0 145 146 139 .015 -.0045 .1 18 145 348 0 147 148 149 142 ?1 29
 146 403 0 149 150 142 .08 -.0045 .015 18 149 349 0 151 145 152 146 ?1 29 150 40
7 0 144 153 146 .015 .0045 .1 18 144 346 0 154 141 148 150 ?1 29 153 408 0 148 1
55 150 .08 .0045 .015 18 148 347 0 156 144 145 153 ?1 29 155 990 0 152 157 153 .
009 -.0045 .1 18 152 900 0 158 149 159 155 ?1 29 157 991 0 159 160 155 .009 .004
5 .1 18 159 901 0 161 152 162 157 ?1 29 160 993 0 162 163 157 .01 .0045 .1 18 16
2 902 0 24 159 164 160 ?1 29 163 994 0 164 165 160 .08 -.0045 .01 18 164 888 0 1
66 162 167 163 ?1 29 165 995 0 167 168 163 .08 .0045 .01 18 167 903 0 169 164 17
0 165 ?1 29 168 996 0 170 171 165 .08 .0045 .009 18 170 905 0 31 167 172 168 ?1
 29 171 998 0 172 173 168 .009 -.0045 .01 18 172 894 0 174 170 175 171 ?1 29 173
 999 0 175 176 171 .009 .0045 .01 18 175 897 0 177 172 178 173 ?1 29 176 1000 0
 178 179 173 .01 -.0045 .01 18 178 904 0 180 175 181 176 ?1 29 179 1001 0 181 18
2 176 .01 .0045 .01 18 181 899 0 183 178 184 179 ?1 29 182 1006 0 185 186 179 .0
09 -.0045 .009 18 185 895 0 187 184 188 182 ?1 29 186 1007 0 184 189 182 .009 .0
045 .009 18 184 898 0 190 181 185 186 ?1 29 189 1008 0 188 191 186 .01 -.0045 .0
09 18 188 896 0 192 185 193 189 ?1 29 191 1009 0 193 0 189 .01 .0045 .009 18 193
 906 0 194 188 0 191 ?1 17 194 0 30 32 31 193 195 196 0 197 +15 255 30 948 0 31
 198 0 17 32 0 30 28 194 188 199 200 0 201 -17 31 0 30 194 28 170 202 203 0 195
 -17 195 0 204 169 205 170 194 196 0 206 -16 196 856 0 ?194 207 34 208 0 0 1 17
 197 0 209 210 190 193 211 212 0 205 -15 209 928 0 190 213 0 17 210 0 209 214 19
7 181 205 215 0 216 +17 190 0 209 197 214 184 217 218 0 211 -17 211 0 219 220 19
9 184 197 212 0 221 +16 212 868 0 ?211 200 222 223 0 0 1 17 205 0 204 195 216 19
3 210 215 0 199 -15 204 946 0 169 224 0 17 216 0 204 205 169 181 225 207 0 0 -16
 215 877 0 ?210 226 227 228 227 227 1 17 199 0 219 211 192 193 32 200 0 0 +15 21
9 938 0 199 229 0 17 192 0 219 199 220 188 230 231 0 32 +16 200 879 0 ?199 27 21
2 232 0 0 1 16 27 869 0 ?21 233 200 234 233 233 1 30 232 980 0 200 235 223 0 +.0
1 0 .009 0 1 0 30 235 981 0 231 236 232 0 +.0095 -.0045 .009 1 0 0 30 223 979 0
 212 232 237 0 +.0095 .0045 .009 -1 0 0 30 237 978 0 222 223 234 0 +.009 0 .009
 0 -1 0 16 222 865 0 ?220 212 231 237 0 0 1 30 234 977 0 233 237 228 0 +.01 -.00
45 .009 0 0 1 16 233 860 0 ?238 227 27 234 27 27 1 30 228 976 0 215 234 239 0 +.
01 .0045 .009 0 0 1 30 239 975 0 218 228 240 0 +.009 .0045 .009 0 0 1 16 218 866
 0 ?217 241 226 239 226 226 1 30 240 974 0 242 239 243 0 +.009 -.0045 .009 0 0 1
 16 242 863 0 ?244 245 241 240 241 241 1 30 243 969 0 245 240 246 0 +.01 0 .01 0
 -1 0 16 245 873 0 ?25 247 242 243 0 0 1 30 246 968 0 247 243 248 0 +.0095 .0045
 .01 1 0 0 16 247 867 0 ?183 249 245 246 0 0 1 30 248 967 0 249 246 250 0 +.009
 0 .01 0 1 0 16 249 864 0 ?177 251 247 248 0 0 1 30 250 966 0 251 248 252 0 +.00
95 -.0045 .01 -1 0 0 16 251 861 0 ?174 253 249 250 0 0 1 30 252 397 0 254 250 25
5 0 +.08 .0045 .015 0 0 1 16 254 498 0 ?156 256 257 252 0 0 1 30 255 396 0 257 2
52 258 0 +.015 .0045 .1 -.607450107570797 0 .794357832977196 16 257 330 0 ?259 2
54 260 255 0 0 1 30 258 395 0 260 255 261 0 +.009 .0045 .1 -1 0 0 16 260 328 0 ?
262 257 263 258 0 0 1 30 261 392 0 263 258 264 0 +.08 -.0045 .015 0 0 1 16 263 4
53 0 ?151 260 265 261 0 0 1 30 264 391 0 265 261 266 0 +.015 -.0045 .1 -.6074501
07570797 0 .794357832977196 16 265 340 0 ?267 263 268 264 0 0 1 30 266 390 0 268
 264 269 0 +.009 -.0045 .1 -1 0 0 16 268 341 0 ?270 265 271 266 0 0 1 30 269 388
 0 272 266 273 0 +.015 .0045 .1 0 -1 0 16 272 331 0 ?147 274 275 269 0 0 1 30 27
3 387 0 275 269 276 0 +.08 .0045 .015 0 -1 0 16 275 333 0 ?277 272 278 273 0 0 1
 30 276 386 0 278 273 279 0 +.08 .0045 .009 0 -1 0 16 278 336 0 ?280 275 203 276
 256 203 1 30 279 384 0 281 276 282 0 +.009 .0045 .1 0 -1 0 16 281 329 0 ?283 28
4 285 279 274 285 1 31 255 282 265 0 286 279 287 0 +.025 -.025 .009 0 0 1 1 0 0
 .005 16 286 226 0 ?288 289 284 282 0 0 1 31 287 264 0 290 282 291 0 +.065 -.025
 .009 0 0 1 1 0 0 .005 16 290 208 0 ?292 293 289 287 0 0 1 31 291 263 0 294 287
 295 0 +.065 .025 .009 0 0 1 1 0 0 .005 16 294 190 0 ?296 297 293 291 0 0 1 31 2
95 262 0 298 291 299 0 +.025 .025 .009 0 0 1 1 0 0 .005 16 298 172 0 ?300 301 29
7 295 0 0 1 30 299 124 0 301 295 302 0 +.0045 -.04 .009 1 0 0 16 301 75 0 ?59 30
3 298 299 0 0 1 30 302 120 0 303 299 304 0 +.009 -.04 .009 0 0 1 16 303 526 0 ?1
43 305 301 302 0 0 1 30 304 119 0 305 302 306 0 +.009 .04 .009 0 0 1 16 305 509
 0 ?140 307 303 304 0 0 1 30 306 118 0 307 304 308 0 +0 .04 .009 0 0 1 16 307 79
 0 ?309 310 305 306 0 0 1 30 308 117 0 310 306 311 0 +0 -.04 .009 0 0 1 16 310 7
6 0 ?312 313 307 308 0 0 1 30 311 116 0 314 308 315 0 +.009 0 .1 0 -1 0 16 314 8
4 0 ?316 317 313 311 313 313 1 30 315 115 0 317 311 318 0 +.0045 .04 .1 1 0 0 16
 317 80 0 ?319 320 314 315 0 0 1 30 318 114 0 320 315 321 0 +0 0 .1 0 1 0 16 320
 77 0 ?137 322 317 318 0 0 1 30 321 113 0 322 318 323 0 +.0045 -.04 .1 -1 0 0 16
 322 74 0 ?134 324 320 321 0 0 1 30 323 42 0 324 321 325 0 +.04 -.04 0 1 0 0 16
 324 12 0 ?326 327 322 323 0 0 1 30 325 43 0 328 323 329 0 +.08 0 0 0 1 0 16 328
 6 0 ?330 331 332 325 0 0 1 30 329 44 0 332 325 333 0 +.04 .04 0 -1 0 0 16 332 1
6 0 ?334 328 327 329 0 0 1 30 333 45 0 327 329 335 0 +0 0 0 0 -1 0 16 327 14 0 ?
336 332 324 333 0 0 1 30 335 50 0 331 333 337 0 +.08 -.04 0 0 0 1 16 331 18 0 ?3
38 339 328 335 0 0 1 30 337 51 0 339 335 340 0 +.08 .04 0 0 0 1 16 339 20 0 ?341
 342 331 337 0 0 1 30 340 52 0 342 337 343 0 +0 .04 0 0 0 1 16 342 22 0 ?344 345
 339 340 0 0 1 30 343 53 0 345 340 346 0 +0 -.04 0 0 0 1 16 345 24 0 ?347 348 34
2 343 0 0 1 30 346 59 0 349 343 350 0 +.08 0 .009 0 -1 0 16 349 25 0 ?351 352 34
8 346 348 348 1 30 350 60 0 353 346 354 0 +.04 .04 .009 1 0 0 16 353 28 0 ?63 35
5 352 350 352 352 1 30 354 61 0 356 350 357 0 +0 0 .009 0 1 0 16 356 31 0 ?358 3
59 360 354 355 360 1 30 357 62 0 359 354 361 0 +.04 -.04 .009 -1 0 0 16 359 34 0
 ?362 363 356 357 0 0 1 31 361 137 0 284 357 364 0 +.025 -.025 0 0 0 -1 -1 0 0 .
005 16 284 228 0 ?365 286 281 361 0 0 1 31 364 142 0 289 361 366 0 +.065 -.025 0
 0 0 -1 -1 0 0 .005 16 289 210 0 ?367 290 286 364 0 0 1 31 366 147 0 293 364 368
 0 +.065 .025 0 0 0 -1 -1 0 0 .005 16 293 192 0 ?369 294 290 366 0 0 1 31 368 15
2 0 297 366 370 0 +.025 .025 0 0 0 -1 -1 0 0 .005 16 297 174 0 ?371 298 294 368
 0 0 1 30 370 461 0 363 368 372 0 +.0135 -.0045 0 0 0 -1 16 363 459 0 ?95 373 35
9 370 0 0 1 30 372 464 0 373 370 374 0 +0 -.0045 .0135 1 0 0 16 373 462 0 ?375 3
76 363 372 0 0 1 30 374 475 0 376 372 377 0 +.0135 -.04 .009 0 -1 0 16 376 473 0
 ?378 379 373 374 0 0 1 30 377 478 0 379 374 380 0 +.04 -.009 .009 -1 0 0 16 379
 476 0 ?93 381 376 377 0 0 1 30 380 489 0 381 377 382 0 +.0135 .0045 .009 0 -1 0
 16 381 487 0 ?91 383 379 380 0 0 1 30 382 492 0 383 380 384 0 +.08 .009 .009 1
 0 0 16 383 490 0 ?385 386 381 382 0 0 1 30 384 503 0 386 382 387 0 +.0135 .0045
 .1 0 0 1 16 386 501 0 ?89 388 383 384 0 0 1 30 387 506 0 388 384 389 0 +.009 .0
045 .0135 -1 0 0 16 388 504 0 ?83 390 386 387 0 0 1 30 389 517 0 390 387 391 0 +
.009 .009 .009 0 0 -1 16 390 515 0 ?77 392 388 389 0 0 1 30 391 520 0 392 389 39
3 0 +.009 .04 .0135 0 1 0 16 392 518 0 ?80 394 390 391 0 0 1 30 393 531 0 394 39
1 395 0 +.009 -.009 .009 0 0 1 16 394 529 0 ?396 397 392 393 0 0 1 30 395 534 0
 397 393 398 0 +.009 -.0045 .0135 0 1 0 16 397 532 0 ?73 399 394 395 0 0 1 30 39
8 614 0 399 395 400 0 +.08 -.0045 .0135 0 -.707106781186548 -.707106781186548 16
 399 536 0 ?401 402 397 398 0 0 1 30 400 615 0 402 398 403 0 -.08 .009 .009 0 .7
07106781186548 -.707106781186548 16 402 545 0 ?86 404 399 400 0 0 1 30 403 616 0
 404 400 405 0 -.009 .04 .0135 -.707106781186548 0 .707106781186548 16 404 548 0
 ?406 407 402 403 0 0 1 30 405 617 0 407 403 408 0 -.009 -.04 .0135 .70710678118
6548 0 -.707106781186548 16 407 557 0 ?75 409 404 405 0 0 1 30 408 618 0 409 405
 410 0 +.009 -.009 .1 .707106781186548 .707106781186548 0 16 409 563 0 ?98 411 4
07 408 0 0 1 30 410 619 0 411 408 412 0 -.0135 .0045 .1 .707106781186548 -.70710
6781186548 0 16 411 566 0 ?413 414 409 410 0 0 1 30 412 672 0 415 410 416 0 -.01
35 -.009 .009 0 .707106781186548 .707106781186547 16 415 650 0 ?417 418 419 412
 0 0 1 30 416 671 0 418 412 420 0 +.01125 -.00675 .0135 -.707106781186547 -.7071
06781186548 0 16 418 648 0 ?421 271 415 416 0 0 1 30 420 670 0 271 416 422 0 -.0
135 -.009 .009 -.707106781186548 0 .707106781186548 16 271 647 0 ?423 268 418 42
0 0 0 1 30 422 727 0 253 420 424 0 +.0135 .0045 .0135 0 -.707106781186548 .70710
6781186547 16 253 705 0 ?425 426 251 422 0 0 1 30 424 726 0 426 422 427 0 -.0112
5 .009 .01125 .707106781186548 0 -.707106781186548 16 426 703 0 ?428 419 253 424
 0 0 1 30 427 725 0 419 424 429 0 -.0135 .0045 .0135 -.707106781186547 .70710678
1186548 0 16 419 702 0 ?430 415 426 427 0 0 1 31 429 741 0 414 427 431 0 +.065 -
.025 .009 0 0 1 1 0 0 .01 16 414 738 0 ?432 433 411 429 0 0 1 31 431 746 0 433 4
29 434 0 +.025 -.025 .009 0 0 1 1 0 0 .01 16 433 743 0 ?435 436 414 431 0 0 1 31
 434 751 0 436 431 437 0 +.025 .025 .009 0 0 1 1 0 0 .01 16 436 748 0 ?438 439 4
33 434 0 0 1 31 437 756 0 439 434 440 0 +.065 .025 .009 0 0 1 1 0 0 .01 16 439 7
53 0 ?441 442 436 437 0 0 1 133 255 440 766 0 443 437 444 0 +444 0 -.025 .06 0 -
.025 .09 0 1 17 443 0 445 446 47 42 447 442 440 0 +137 255 444 767 0 1 440 448 4
49 +450 451 0 ?133 448 768 0 447 444 452 0 +452 0 -.025 .09 0 -.025 .06 1 0 141
 255 449 440 449 449 444 50 450 109 0 453 454 455 456 +0 0 .009 -1 0 0 0 0 1 134
 255 451 0 0 0 0 0 0 +457 458 136 255 457 1 2 2 2 5 FFF1 459 460 461 135 255 458
 1 0 45 255 4 459 .051 -.025 .081 -.025 127 255 2 460 2 2 128 255 2 461 0 1 14 2
55 453 97 0 ?462 463 464 3 450 +11 11 462 463 18 50 454 110 0 462 465 450 0 +.00
45 .04 .009 0 1 0 0 0 1 50 455 108 0 463 450 466 0 +.0045 -.04 .009 0 -1 0 0 0 -
1 141 456 444 467 468 450 141 467 469 470 456 450 141 468 452 456 471 450 137 45
2 769 0 1 448 472 473 -450 474 0 ?141 471 475 468 476 450 137 475 777 0 1 472 47
7 478 +450 479 0 ?141 476 480 471 481 450 137 480 779 0 1 477 482 483 -450 484 0
 ?141 481 485 476 486 450 137 485 787 0 1 482 487 488 +450 489 0 ?141 486 490 48
1 470 450 137 490 789 0 1 487 491 492 -450 493 0 ?141 470 494 486 467 450 137 49
4 796 0 1 491 495 496 +450 497 0 ?133 491 795 0 47 490 494 0 +494 0 .025 .06 0 -
.025 .06 0 1 133 495 797 0 36 494 469 0 +469 0 -.025 .06 0 .025 .06 1 0 141 496
 491 496 496 494 134 497 0 0 0 0 0 0 +498 499 136 498 1 2 2 2 5 FFF1 500 501 502
 135 499 1 0 45 4 500 .051 .025 .051 -.025 127 2 501 2 2 128 2 502 0 1 17 36 0 4
64 41 447 29 47 503 495 504 -137 469 798 0 1 495 505 506 -450 507 0 ?30 505 810
 0 508 469 509 0 +.08 .0045 .015 0 0 1 141 506 495 506 506 469 134 507 0 0 0 0 0
 0 +510 511 136 510 1 2 2 2 5 FFF1 512 513 514 135 511 1 0 45 4 512 .051 .025 .0
51 -.025 127 2 513 2 2 128 2 514 0 1 16 508 808 0 ?169 515 503 505 0 0 1 30 509
 814 0 515 505 516 0 +.08 .0045 .01 0 -1 0 16 515 812 0 ?166 517 508 509 0 0 1 3
0 516 817 0 517 509 518 0 +.08 -.0045 .015 0 0 -1 16 517 815 0 ?35 519 515 516 0
 0 1 30 518 831 0 519 516 16 0 +.01 .0045 .1 0 1 0 16 519 829 0 ?24 20 517 518 0
 0 1 30 16 833 0 20 518 5 0 +.009 .0045 .1 -1 0 0 16 20 832 0 ?161 8 519 16 0 0
 1 17 161 0 520 521 522 159 523 20 0 524 +15 520 936 0 161 525 0 17 521 0 520 18
3 161 175 524 226 0 217 -17 522 0 520 161 183 162 526 227 0 523 +17 523 0 527 52
8 283 162 161 20 0 0 -17 524 0 529 158 177 159 521 226 0 530 +15 529 934 0 158 5
31 0 17 158 0 529 532 524 152 530 285 0 533 +17 177 0 529 524 532 175 534 249 0
 214 +16 226 871 0 ?524 218 215 239 218 218 1 17 530 0 535 50 536 159 158 285 0
 283 -15 535 94 0 537 538 0 17 50 0 535 539 530 48 283 281 0 316 -17 536 0 535 5
30 540 152 54 274 0 0 -16 285 820 0 ?158 281 274 279 281 274 1 17 283 0 527 523
 413 159 50 281 0 0 +15 527 835 0 541 542 0 17 413 0 527 283 262 48 543 411 0 54
4 +17 262 0 527 413 154 87 545 260 0 543 +17 543 0 546 547 544 87 413 411 0 0 -1
7 544 0 546 543 548 48 77 390 0 0 -15 546 687 0 543 14 0 17 548 0 546 544 547 56
 430 419 0 428 -17 77 0 549 80 316 56 544 390 0 550 +15 549 298 0 77 551 0 17 80
 0 549 140 77 78 550 392 0 552 +17 316 0 549 77 140 48 539 314 0 413 +17 550 0 5
53 554 555 56 80 392 0 548 -15 553 689 0 555 556 0 17 554 0 553 557 550 68 428 4
26 0 558 -17 555 0 553 550 557 78 406 404 0 0 -17 557 0 553 555 554 51 91 381 0
 0 -17 406 0 559 560 552 51 555 404 0 557 +15 559 100 0 309 462 0 17 560 0 559 3
09 406 111 63 353 0 0 -17 552 0 559 406 319 78 140 305 0 555 -17 319 0 559 552 3
09 138 561 317 0 539 +17 140 0 549 316 80 138 552 305 0 319 +17 309 0 559 319 56
0 135 562 307 0 0 +17 561 0 535 563 539 135 319 317 0 309 -17 539 0 535 561 50 1
38 316 314 0 0 -17 563 0 535 537 561 132 137 320 0 312 -17 537 0 535 540 563 141
 134 322 0 0 -17 137 0 564 562 312 135 563 320 0 561 +17 312 0 564 137 565 132 5
66 310 0 0 +15 564 98 0 312 453 0 17 565 0 564 312 107 108 358 356 0 0 -17 566 0
 567 59 134 108 312 310 0 565 -15 567 96 0 59 463 0 17 59 0 567 75 566 57 110 30
1 0 378 +17 134 0 567 566 143 132 537 322 0 563 +17 143 0 567 134 75 141 568 303
 0 569 +17 75 0 567 143 59 55 570 407 0 568 +17 568 0 571 73 569 55 143 303 0 57
2 -17 569 0 571 568 396 141 540 313 0 537 +15 571 104 0 568 573 0 17 396 0 571 5
69 73 52 574 394 0 540 +17 540 0 535 536 537 52 569 313 0 575 -16 313 523 0 ?569
 314 310 311 314 314 1 17 575 0 576 574 577 52 98 409 0 0 -15 576 634 0 575 578
 0 17 574 0 576 579 575 71 396 394 0 580 -17 577 0 576 575 579 96 95 363 0 0 -17
 98 0 527 581 54 96 575 409 0 270 +17 581 0 527 154 98 145 270 268 0 267 -17 54
 0 527 98 541 52 536 274 0 396 +17 270 0 582 95 267 96 581 268 0 577 +15 582 373
 0 95 583 0 17 95 0 582 375 270 61 577 363 0 579 +17 267 0 582 270 151 145 584 2
65 0 0 +17 151 0 582 267 375 149 585 263 0 277 +17 584 0 586 587 147 149 267 265
 0 0 -15 586 365 0 584 588 0 17 587 0 586 259 584 148 277 275 0 589 -17 147 0 58
6 584 259 145 154 272 0 581 +17 259 0 586 147 587 144 589 257 0 0 +17 154 0 527
 262 581 144 147 272 0 545 -17 545 0 590 589 89 144 262 260 0 259 -15 590 371 0
 591 592 0 17 589 0 590 591 545 148 259 257 0 0 -17 89 0 590 545 83 87 547 386 0
 262 +17 83 0 590 89 591 81 593 388 0 547 +17 547 0 546 548 543 81 89 386 0 430
 -17 430 0 594 558 428 81 548 419 0 425 +15 594 691 0 428 595 0 17 558 0 594 428
 430 68 425 253 0 596 -17 428 0 594 430 558 56 554 426 0 0 +17 425 0 597 593 596
 81 558 253 0 0 +15 597 693 0 425 598 0 17 593 0 597 599 425 84 83 388 0 0 -17 5
96 0 597 425 599 68 385 383 0 0 -17 599 0 597 596 593 65 86 402 0 385 -17 385 0
 600 601 91 65 596 383 0 351 +15 600 318 0 91 602 0 17 601 0 600 603 385 114 351
 349 0 341 -17 91 0 600 385 603 68 557 381 0 554 +17 351 0 604 280 341 65 601 34
9 0 0 +15 604 7 0 330 605 0 17 280 0 604 202 351 170 67 278 0 0 +17 341 0 604 35
1 330 114 129 339 0 0 +17 330 0 604 341 131 120 606 328 0 0 +17 129 0 607 334 11
6 120 341 339 0 608 -15 607 26 0 344 609 0 17 334 0 607 344 129 124 608 332 0 61
0 +17 116 0 607 129 63 114 603 352 0 601 +17 608 0 611 606 610 120 334 332 0 330
 -15 611 8 0 606 612 0 17 606 0 611 613 608 125 330 328 0 0 -17 610 0 611 608 61
3 124 336 327 0 0 -17 613 0 611 610 606 121 326 324 0 0 -17 336 0 614 347 127 12
1 610 327 0 613 +15 614 29 0 347 615 0 17 347 0 614 358 336 108 123 345 0 566 +1
7 127 0 614 336 113 124 344 342 0 334 -17 113 0 614 127 616 111 104 355 0 344 +1
7 344 0 607 63 334 111 127 342 0 562 +17 63 0 607 116 344 51 560 353 0 603 +17 5
62 0 564 104 137 111 309 307 0 560 -17 104 0 564 107 562 102 113 355 0 616 -17 1
07 0 564 565 104 105 616 360 0 358 -16 355 305 0 ?113 360 353 354 360 356 1 17 6
16 0 614 113 358 102 107 360 0 0 +17 358 0 614 616 347 105 565 356 0 0 +16 360 3
02 0 ?616 356 355 354 356 355 1 17 603 0 600 91 601 51 116 352 0 406 -16 352 484
 0 ?116 353 349 350 353 353 1 17 123 0 617 326 110 121 347 345 0 336 -15 617 32
 0 338 618 0 17 326 0 617 338 123 125 613 324 0 606 +17 110 0 617 123 362 108 59
 301 0 347 -17 362 0 617 110 338 57 619 359 0 570 +17 338 0 617 362 326 117 131
 331 0 0 +17 619 0 620 621 378 117 362 359 0 338 -17 570 0 622 623 572 57 75 407
 0 0 -15 622 632 0 570 624 0 17 623 0 622 580 570 60 378 376 0 423 -17 572 0 622
 570 580 55 73 397 0 0 -17 580 0 622 572 623 71 423 271 0 421 -17 73 0 571 396 5
68 71 572 397 0 574 +17 423 0 625 626 421 60 580 271 0 417 +17 421 0 625 423 626
 71 579 418 0 0 +15 625 636 0 421 627 0 17 626 0 625 421 423 61 417 415 0 628 -1
7 579 0 576 577 574 61 421 418 0 626 -17 417 0 629 630 628 60 626 415 0 0 +17 62
8 0 629 417 101 61 375 373 0 0 -15 629 638 0 417 631 0 17 101 0 629 628 630 99 4
01 399 0 375 -17 375 0 582 151 95 99 628 373 0 585 +17 585 0 632 401 277 99 151
 263 0 0 -15 632 816 0 633 634 0 17 401 0 632 635 585 64 101 399 0 630 +17 277 0
 632 585 156 149 587 275 0 584 +17 156 0 632 277 86 148 591 254 0 587 +17 86 0 6
32 156 67 84 599 402 0 591 +17 591 0 590 83 589 84 156 254 0 593 -17 67 0 632 86
 206 65 280 278 0 599 -17 206 0 632 67 636 170 169 508 0 280 -17 636 0 632 206 6
33 167 166 515 0 0 -17 169 0 204 216 195 167 206 508 0 225 +17 225 0 637 166 638
 167 216 207 0 636 +15 637 942 0 166 639 0 17 166 0 637 180 225 164 636 515 0 64
0 +17 638 0 637 225 180 181 25 245 0 526 -16 207 878 0 ?225 641 196 642 0 0 1 16
 641 852 0 ?180 231 207 236 0 0 1 30 642 983 0 207 208 236 0 +.049 .0045 .01 1 0
 0 30 208 987 0 196 643 642 0 +.049 .0045 .009 -1 0 0 30 236 982 0 641 642 235 0
 +.049 -.0045 .01 -1 0 0 30 643 989 0 34 0 208 0 +.049 -.0045 .009 1 0 0 16 34 8
75 0 ?28 196 0 643 0 0 1 17 180 0 637 638 166 178 640 641 0 644 +16 231 862 0 ?1
92 222 641 235 0 0 1 17 640 0 645 35 238 164 180 641 0 633 -17 644 0 646 201 244
 178 174 251 0 26 -15 646 924 0 201 647 0 17 201 0 646 230 644 188 238 233 0 33
 -17 244 0 646 644 230 172 187 242 0 0 +17 174 0 648 533 26 172 644 251 0 534 +1
7 26 0 648 174 19 178 21 27 0 238 -15 648 932 0 19 649 0 17 19 0 648 26 533 9 54
1 8 0 528 +17 238 0 645 640 33 178 201 233 0 25 +15 645 944 0 35 650 0 17 33 0 6
45 238 35 188 28 34 0 0 -17 25 0 23 21 526 178 638 245 0 0 +15 23 940 0 24 651 0
 17 526 0 23 25 24 181 522 227 0 210 -17 24 0 23 526 21 162 528 519 0 522 +16 22
7 872 0 ?522 215 233 228 215 215 1 17 528 0 527 541 523 9 24 519 0 0 -17 541 0 5
27 54 528 152 19 8 0 536 -14 651 939 0 ?639 229 23 3 652 -0 0 639 229 18 14 639
 941 0 ?650 651 637 3 653 -0 0 650 651 18 14 229 937 0 ?651 525 219 3 654 -0 0 6
51 525 18 50 652 957 0 651 654 655 0 +.01 0 .009 1 0 0 0 0 -1 13 18 4 0 0 0 0 0
 0 7 11 14 11 800 0 ?656 0 445 3 450 +453 453 656 0 18 14 656 757 0 ?657 11 658
 3 659 +657 602 657 11 18 15 445 759 0 504 11 0 17 504 0 445 47 446 29 41 660 48
7 0 -17 47 0 445 443 504 45 36 503 491 447 +17 446 0 445 504 443 37 44 661 472 0
 +17 41 0 464 44 36 37 504 660 482 446 +16 660 782 0 1e-6 41 503 661 0 0 0 1 133
 487 788 0 504 485 490 0 +490 0 .025 .09 0 .025 .06 1 0 16 503 791 0 1e-6 47 508
 660 0 0 0 1 16 661 772 0 1e-6 446 660 442 0 0 0 1 16 442 762 0 1e-6 443 661 439
 0 0 0 1 15 464 792 0 36 453 564 17 44 0 464 447 41 42 446 661 477 443 -133 482
 786 0 41 480 485 0 +485 0 .025 .06 0 .025 .09 0 1 17 447 0 464 36 44 45 443 442
 448 0 -133 477 778 0 44 475 480 0 +480 0 .025 .09 0 -.025 .09 1 0 133 472 776 0
 446 452 475 0 +475 0 -.025 .09 0 .025 .09 0 1 14 657 752 0 ?662 656 663 3 659 +
662 656 662 656 18 15 658 164 0 664 656 665 50 659 54 0 602 666 667 0 +.04 0 .00
9 0 0 1 1 0 0 14 602 36 0 ?618 573 668 3 659 +656 669 618 573 18 14 618 33 0 ?61
5 602 617 3 666 +0 0 615 602 18 14 573 296 0 ?602 669 571 3 465 +551 551 602 669
 18 15 668 755 0 670 602 671 14 669 316 0 ?573 672 673 3 659 +602 672 573 672 18
 14 672 742 0 ?669 662 674 3 659 +669 662 669 662 18 15 673 745 0 675 669 676 17
 675 0 673 675 675 0 435 433 0 0 -15 676 740 0 677 669 620 17 677 0 676 677 677
 0 432 414 0 0 -15 620 70 0 621 669 0 17 621 0 620 93 619 64 119 348 0 401 -17 9
3 0 620 378 621 60 630 379 0 623 +17 119 0 604 131 70 117 621 348 0 619 +16 348
 467 0 ?119 349 345 346 349 349 1 17 131 0 604 330 119 125 338 331 0 326 -17 70
 0 604 119 202 64 635 256 0 621 +17 202 0 604 70 280 22 31 203 0 0 +17 635 0 632
 633 401 22 70 256 0 202 -16 256 805 0 ?70 203 254 276 203 278 1 16 203 802 0 ?2
02 278 256 276 278 256 1 17 633 0 632 636 635 164 35 517 0 0 -17 35 0 645 33 640
 22 633 517 0 635 +17 378 0 620 619 93 57 623 376 0 362 +17 630 0 629 101 417 64
 93 379 0 0 -17 432 0 678 432 432 0 677 414 0 0 +15 678 739 0 432 672 0 17 435 0
 679 435 435 0 675 433 0 0 +15 679 744 0 435 662 0 14 662 747 0 ?672 657 680 3 6
59 +672 657 672 657 18 15 680 156 0 681 662 679 17 681 0 680 681 681 0 288 286 0
 0 -17 288 0 682 288 288 0 681 286 0 0 +15 682 240 0 288 683 684 14 683 239 0 ?6
85 551 682 3 686 -0 0 685 551 18 15 684 241 0 365 683 0 17 365 0 684 365 365 0 6
87 284 0 0 +17 687 0 688 687 687 0 365 284 0 0 -15 688 136 0 687 612 611 14 612
 9 0 ?605 609 689 3 690 +0 0 605 609 18 14 605 2 0 ?538 612 604 3 691 +0 0 538 6
12 18 14 609 27 0 ?612 615 607 3 692 +0 0 612 615 18 15 689 151 0 693 612 694 50
 690 37 0 612 466 691 0 +.04 0 0 0 0 -1 -1 0 0 50 466 107 0 538 455 690 0 +.0045
 0 .1 0 0 1 1 0 0 50 691 46 0 605 690 692 0 +.08 0 0 1 0 0 0 0 -1 50 692 47 0 60
9 691 695 0 +.04 .04 0 0 1 0 0 0 1 50 695 48 0 615 692 666 0 +0 0 0 -1 0 0 0 0 1
 14 615 30 0 ?609 618 614 3 695 +0 0 609 618 18 50 666 49 0 618 695 659 0 +.04 -
.04 0 0 -1 0 0 0 -1 14 538 93 0 ?463 605 535 3 466 +0 0 463 605 18 14 463 95 0 ?
453 538 567 3 455 +0 0 453 538 18 17 693 0 689 693 693 0 371 297 0 0 -15 694 146
 0 696 612 697 17 696 0 694 696 696 0 369 293 0 0 -15 697 141 0 698 612 688 17 6
98 0 697 698 698 0 367 289 0 0 -17 367 0 699 367 367 0 698 289 0 0 +15 699 223 0
 367 685 0 14 685 221 0 ?700 683 701 3 702 -0 0 700 683 18 14 700 203 0 ?703 685
 704 3 705 -0 0 703 685 18 15 701 222 0 292 685 699 51 255 702 259 0 685 706 705
 0 +.065 -.025 -.005 0 0 1 .005 1 0 0 50 706 376 0 542 707 702 0 +.009 .0045 .1
 0 0 1 1 0 0 51 705 256 0 700 702 708 0 +.065 .025 -.005 0 0 1 .005 1 0 0 51 708
 253 0 703 705 686 0 +.025 .025 -.005 0 0 1 .005 1 0 0 14 703 185 0 ?542 700 709
 3 708 -0 0 542 700 18 51 686 250 0 683 708 465 0 +.025 -.025 -.005 0 0 1 .005 1
 0 0 50 465 111 0 551 686 454 0 +.009 0 .009 1 0 0 0 0 -1 14 551 103 0 ?683 462
 549 3 465 +573 573 683 462 18 14 462 99 0 ?551 453 559 3 454 +0 0 551 453 18 14
 542 362 0 ?588 703 527 3 706 +0 0 588 703 18 15 709 186 0 300 703 710 17 300 0
 709 300 300 0 711 298 0 0 +15 710 187 0 371 703 0 17 371 0 710 371 371 0 693 29
7 0 0 +17 711 0 663 711 711 0 300 298 0 0 -15 663 168 0 711 657 712 15 712 749 0
 438 657 0 17 438 0 712 438 438 0 713 436 0 0 +17 713 0 671 713 713 0 438 436 0
 0 -15 671 750 0 713 602 600 14 588 364 0 ?634 542 586 3 707 +0 0 634 542 18 14
 634 366 0 ?592 588 632 3 714 +0 0 592 588 18 50 707 377 0 588 714 706 0 +.015 .
0045 .1 .794357832977196 0 .607450107570797 .607450107570797 0 -.794357832977196
 50 714 378 0 634 715 707 0 +.08 .0045 .015 1 0 0 0 0 -1 50 715 381 0 583 716 71
4 0 +0 -.0045 0 0 1 0 0 0 1 14 583 372 0 ?624 592 582 3 715 -0 0 624 592 18 50 7
16 382 0 592 717 715 0 +0 .0045 0 0 1 0 0 0 1 14 592 370 0 ?583 634 590 3 716 +0
 0 583 634 18 50 717 954 0 649 718 716 0 +.0095 -.0045 .009 0 -1 0 0 0 -1 14 649
 931 0 ?531 213 648 3 717 -647 647 531 213 18 50 718 955 0 531 655 717 0 +.009 0
 .009 -1 0 0 0 0 1 14 531 933 0 ?525 649 529 3 718 -719 719 525 649 18 50 655 95
6 0 525 652 718 0 +.0095 .0045 .009 0 1 0 0 0 1 14 525 935 0 ?229 531 520 3 655
 -213 213 229 531 18 14 213 927 0 ?649 719 209 3 655 -525 525 649 719 18 14 719
 925 0 ?213 647 720 3 718 -531 531 213 647 18 14 647 923 0 ?719 598 646 3 717 -6
49 649 719 598 18 15 720 926 0 187 719 0 17 187 0 720 221 534 185 244 242 0 220
 -17 221 0 720 217 187 184 220 222 0 0 -17 534 0 720 187 217 172 177 249 0 532 -
17 220 0 219 192 211 185 221 222 0 230 +17 230 0 646 244 201 185 192 231 0 0 -17
 217 0 720 534 221 175 190 218 0 0 +17 532 0 529 177 158 172 533 241 0 244 -17 5
33 0 648 19 174 152 532 241 0 541 +16 241 870 0 ?533 242 218 240 242 242 1 14 59
8 692 0 ?647 595 597 3 721 -0 0 647 595 18 14 595 690 0 ?598 556 594 3 722 +0 0
 598 556 18 50 721 723 723 598 724 722 0 -.04 .009 .009 0 .707106781186548 .7071
06781186548 -1 0 0 81 255 2 723 724 725 721 0 0 726 0 727 728 50 724 662 729 624
 730 721 0 -.009 0 .0135 .707106781186548 0 .707106781186548 0 -1 0 50 722 721 7
26 595 721 15 0 +.0135 .0045 .0135 .577350269189626 .577350269189626 .5773502691
89626 .707106781186548 0 -.707106781186548 81 2 726 722 725 722 0 0 731 723 732
 733 50 15 719 731 556 722 4 0 -.009 0 .0135 .707106781186548 0 .707106781186548
 0 -1 0 81 2 731 720 725 15 0 0 13 726 734 735 14 556 688 0 ?595 14 553 3 15 -0
 0 595 14 18 14 14 686 0 ?556 631 546 3 4 -0 0 556 631 18 14 631 637 0 ?14 627 6
29 3 667 -0 0 14 627 18 14 627 635 0 ?631 578 625 3 736 +0 0 631 578 18 50 667 6
68 737 631 659 736 0 +0 -.0045 .0135 0 .707106781186548 -.707106781186548 1 0 0
 81 2 737 669 725 667 0 0 738 13 739 740 50 736 666 738 627 667 730 0 +.0135 -.0
09 .009 .577350269189626 -.577350269189626 .577350269189626 .707106781186548 0 -
.707106781186548 81 2 738 667 725 736 0 0 741 737 742 743 50 730 664 741 578 736
 724 0 +.009 -.009 .009 -.707106781186548 .707106781186548 0 0 0 1 81 2 741 665
 725 730 0 0 729 738 744 745 14 578 633 0 ?627 624 576 3 730 -0 0 627 624 18 14
 624 631 0 ?578 583 622 3 724 -0 0 578 583 18 80 255 2 725 746 747 8044 0 0 0 0
 3 5 0 0 0 FFFFTFFFTTFFFF3 2 81 2 729 663 725 724 0 0 0 741 748 749 84 255 6 744
 BAAAAB83 255 3 745 0 .00636396103067893 .0045 84 6 748 BAAAAB83 3 749 0 .006363
96103067893 .0045 79 255 17 747 SDL/TYSA_BLEND_ID84 6 742 IAAAIB83 1 743 .0045 8
1 2 13 718 725 4 0 0 737 731 750 751 84 6 739 BAAAAB83 3 740 0 .0063639610306789
3 .0045 84 6 750 BAAAAB83 3 751 0 .00636396103067893 .0045 84 6 734 BAAAAB83 3 7
35 0 .00636396103067893 .0045 84 6 732 IAAAIB83 1 733 .0045 84 6 727 BAAAAB83 3
 728 0 .00636396103067893 .0045 17 292 0 701 292 292 0 752 290 0 0 +17 752 0 674
 752 752 0 292 290 0 0 -15 674 160 0 752 672 678 15 704 204 0 296 700 753 17 296
 0 704 296 296 0 664 294 0 0 +15 753 205 0 369 700 0 17 369 0 753 369 369 0 696
 293 0 0 +17 664 0 658 664 664 0 296 294 0 0 -17 670 0 668 670 670 0 441 439 0 0
 -17 441 0 665 441 441 0 670 439 0 0 +15 665 754 0 441 656 0 50 654 958 0 229 65
3 652 0 +.0095 0 .009 0 0 -1 -1 0 0 50 653 959 0 639 754 654 0 +.049 0 .01 0 0 1
 1 0 0 50 754 960 0 650 755 653 0 +.049 -.0045 .009 0 -1 0 0 0 -1 14 650 943 0 ?
224 639 645 3 754 -0 0 224 639 18 50 755 961 0 224 756 754 0 +.049 .0045 .009 0
 1 0 0 0 1 14 224 945 0 ?198 650 204 3 755 -0 0 198 650 18 50 756 963 0 198 0 75
5 0 +.049 0 .009 0 0 -1 -1 0 0 14 198 947 0 ?0 224 30 3 756 -0 0 0 224 18 16 274
 823 0 ?54 285 272 279 285 281 1 17 214 0 209 190 210 175 183 247 0 521 -17 183
 0 520 522 521 181 214 247 0 638 +141 492 487 492 492 490 134 493 0 0 0 0 0 0 +7
57 758 136 757 1 2 2 2 5 FFF1 759 760 761 135 758 1 0 45 4 759 .051 .025 .081 .0
25 127 2 760 2 2 128 2 761 0 1 141 488 482 488 488 485 134 489 0 0 0 0 0 0 +762
 763 136 762 1 2 2 2 5 FFF1 764 765 766 135 763 1 0 45 4 764 .051 .025 .081 .025
 127 2 765 2 2 128 2 766 0 1 141 483 477 483 483 480 134 484 0 0 0 0 0 0 +767 76
8 136 767 1 2 2 2 5 FFF1 769 770 771 135 768 1 0 45 4 769 .081 -.025 .081 .025 1
27 2 770 2 2 128 2 771 0 1 141 478 472 478 478 475 134 479 0 0 0 0 0 0 +772 773
 136 772 1 2 2 2 5 FFF1 774 775 776 135 773 1 0 45 4 774 .081 -.025 .081 .025 12
7 2 775 2 2 128 2 776 0 1 141 473 448 473 473 452 134 474 0 0 0 0 0 0 +777 778 1
36 777 1 2 2 2 5 FFF1 779 780 781 135 778 1 0 45 4 779 .051 -.025 .081 -.025 127
 2 780 2 2 128 2 781 0 1 19 12 5 0 1 0 7 3 S0 74 4 CI16 index_map_offset0 0 1 dC
CZ20 10 1 0 0 723 0 0 0 0 0 0 0 0 0 0 0 0 0 0 0 0 0 0 0 1 0 
